<?xml version="1.0" encoding="utf-8"?>
<!-- Generator: Adobe Illustrator 15.0.0, SVG Export Plug-In . SVG Version: 6.00 Build 0)  -->
<!DOCTYPE svg PUBLIC "-//W3C//DTD SVG 1.1//EN" "http://www.w3.org/Graphics/SVG/1.1/DTD/svg11.dtd">
<svg version="1.1" id="Layer_1" xmlns="http://www.w3.org/2000/svg" xmlns:xlink="http://www.w3.org/1999/xlink" x="0px" y="0px"
	 width="75px" height="300px" viewBox="0 0 75 300" enable-background="new 0 0 75 300" xml:space="preserve">
<rect x="1.269" y="1.354" fill="#D69A47" stroke="#4F2811" stroke-width="1.0399" width="73.311" height="298.648"/>
<g opacity="0.4">
	<g>
		<path fill-rule="evenodd" clip-rule="evenodd" fill="#A97C50" d="M1.662,3.185c0.394,7.779,0.796,25.679,0.307,33.131
			C1.281,34.274,1.844,12.987,1.662,3.185z"/>
		<path fill-rule="evenodd" clip-rule="evenodd" fill="#A97C50" d="M6.581,7.922c0.239-8.636,0.331,2.83,0.307,9.464
			C6.65,26.012,6.559,14.545,6.581,7.922z"/>
		<path fill-rule="evenodd" clip-rule="evenodd" fill="#A97C50" d="M7.812,7.922C7.653,5.467,8.033,1.876,8.119,3.185
			C8.278,5.63,7.896,9.23,7.812,7.922z"/>
		<path fill-rule="evenodd" clip-rule="evenodd" fill="#A97C50" d="M8.427,7.922c0.258-15.039,0.405,8.396,0.307,14.192
			C8.476,37.145,8.328,13.718,8.427,7.922z"/>
		<path fill-rule="evenodd" clip-rule="evenodd" fill="#A97C50" d="M9.042,7.922C8.883,5.467,9.264,1.876,9.35,3.185
			C9.507,5.63,9.126,9.23,9.042,7.922z"/>
		<path fill-rule="evenodd" clip-rule="evenodd" fill="#A97C50" d="M10.271,7.922c-0.159-2.455,0.223-6.046,0.309-4.737
			C10.739,5.63,10.356,9.23,10.271,7.922z"/>
		<path fill-rule="evenodd" clip-rule="evenodd" fill="#A97C50" d="M12.117,7.922c-0.159-2.455,0.222-6.046,0.308-4.737
			C12.583,5.63,12.201,9.23,12.117,7.922z"/>
		<path fill-rule="evenodd" clip-rule="evenodd" fill="#A97C50" d="M12.731,7.922c0.05-5.546,0.561-3.995,0.924-4.737
			c-0.894,11.236,0.052,47.65,0,61.524c-0.003,0.54-0.299,5.555-0.309,9.464c0.003-1.348,0.498,2.388,0.309,4.729
			c-0.889,10.947,0.109,63.324-0.309,85.19c-0.292,15.231-0.383-11.756-0.308-28.395c0-9.463,0-18.939,0-28.404
			C12.443,82.542,12.904,24.367,12.731,7.922z"/>
		<path fill-rule="evenodd" clip-rule="evenodd" fill="#A97C50" d="M13.962,7.922c0.076-5.959,0.611-4.777,0.614,0
			C14.304,10.83,14.027,13.631,13.962,7.922z"/>
		<path fill-rule="evenodd" clip-rule="evenodd" fill="#A97C50" d="M14.885,7.922c-0.16-2.455,0.221-6.046,0.307-4.737
			C15.351,5.63,14.97,9.23,14.885,7.922z"/>
		<path fill-rule="evenodd" clip-rule="evenodd" fill="#A97C50" d="M15.499,7.922c-0.053-7.722,2.012-9.561,1.539,4.728
			c-0.263,0.867-0.291-1.849-0.309-4.728c-0.688,2.032-0.125,23.32-0.307,33.122c-0.516,13.633-0.245-24.176-0.308-33.122
			C15.909,7.922,15.705,7.922,15.499,7.922z"/>
		<path fill-rule="evenodd" clip-rule="evenodd" fill="#A97C50" d="M20.112,3.185C20.017,21.93,19.045-2.11,19.19,17.386
			c-0.37-5.344-0.558-13.508-1.538-9.464C16.832-0.483,19.454,4.466,20.112,3.185z"/>
		<path fill-rule="evenodd" clip-rule="evenodd" fill="#A97C50" d="M20.42,7.922c-0.158-2.455,0.224-6.046,0.308-4.737
			C20.886,5.63,20.505,9.23,20.42,7.922z"/>
		<path fill-rule="evenodd" clip-rule="evenodd" fill="#A97C50" d="M22.264,69.437c-0.475,14.471-0.269-20.528-0.307-28.394
			c0.132-22.916-0.206-29.636,0-37.859c0.082-3.283,0.638,2.696,0.615,4.737C22.511,13.13,21.986,49.179,22.264,69.437z"/>
		<path fill-rule="evenodd" clip-rule="evenodd" fill="#A97C50" d="M23.188,7.922c-0.159-2.455,0.223-6.046,0.307-4.737
			C23.655,5.63,23.273,9.23,23.188,7.922z"/>
		<path fill-rule="evenodd" clip-rule="evenodd" fill="#A97C50" d="M23.803,7.922c0.038-10.456,1.304-2.012,1.845-4.737
			c-0.426,15.531-0.726,33.017-0.616,56.787c-0.321-13.381-0.959-19.13-0.922,4.738C23.183,54.687,24.931,21.026,23.803,7.922z
			 M24.725,12.649c0-2.628-0.249-5.373-0.306,0C24.416,15.278,24.667,18.021,24.725,12.649z"/>
		<path fill-rule="evenodd" clip-rule="evenodd" fill="#A97C50" d="M30.875,7.922c-0.158-2.455,0.223-6.046,0.308-4.737
			C31.342,5.63,30.961,9.23,30.875,7.922z"/>
		<path fill-rule="evenodd" clip-rule="evenodd" fill="#A97C50" d="M31.799,7.922c0.423-15.068,0.303,16.714,0.307,23.657
			C31.683,46.647,31.802,14.854,31.799,7.922z"/>
		<path fill-rule="evenodd" clip-rule="evenodd" fill="#A97C50" d="M32.414,7.922c1.568-13.479,1.048,27.008,0.922,47.324
			c0.815,1.501-0.289-26.516,0.922-18.93c-0.449,37.26-0.535,80.107-0.616,123.042c-1.247-18.672-0.827-63-0.922-99.386
			c0.53-19.794-0.02-28.046,0.309-47.322C33.02,8.047,32.652,8.98,32.414,7.922z M33.643,69.437
			c0.013-5.026-0.145-12.016-0.307-4.728C33.323,69.745,33.481,76.726,33.643,69.437z M33.643,93.104
			c0.017-8.146-0.236-12.132-0.613-14.201C33.058,86.344,32.987,95.318,33.643,93.104z"/>
		<path fill-rule="evenodd" clip-rule="evenodd" fill="#A97C50" d="M33.951,7.922c0.02-1.434,0.443-7.385,0.615-4.737
			c0.215,3.312-0.306,5.074-0.308,4.737c0.014,3.523-0.043,28.731-0.308,23.657C33.825,29.144,33.905,11.215,33.951,7.922z"/>
		<path fill-rule="evenodd" clip-rule="evenodd" fill="#A97C50" d="M35.489,7.922c-0.16-2.455,0.221-6.046,0.306-4.737
			C35.954,5.63,35.574,9.23,35.489,7.922z"/>
		<path fill-rule="evenodd" clip-rule="evenodd" fill="#A97C50" d="M37.949,3.185c0.717,0,1.436,0,2.153,0
			c-0.077,5.142-0.611,3.206-0.616,9.465c0.519,28.645,0.343,70.151,0,99.383c-1.115-18.9,0.413-74.436-0.616-104.11
			c-0.707,12.757-0.108,45.639-0.307,66.251C37.904,57.497,37.919,30.452,37.949,3.185z"/>
		<path fill-rule="evenodd" clip-rule="evenodd" fill="#A97C50" d="M42.869,7.922c0.051-5.546,0.561-3.995,0.923-4.737
			c-0.223,14.461,0.313,17.244,0.309,28.394c-0.855-5.846-0.855,15.318,0,9.465c-0.13,9.051-0.111,20.374-0.925,18.928
			C42.979,44.038,43.573,16.02,42.869,7.922z"/>
		<path fill-rule="evenodd" clip-rule="evenodd" fill="#A97C50" d="M44.101,7.922c0.008-4.603,0.374-3.678,0.613-4.737
			C44.706,7.788,44.34,6.853,44.101,7.922z"/>
		<path fill-rule="evenodd" clip-rule="evenodd" fill="#A97C50" d="M45.945,7.922c0.239-8.636,0.33,2.83,0.307,9.464
			C46.015,26.012,45.92,14.545,45.945,7.922z"/>
		<path fill-rule="evenodd" clip-rule="evenodd" fill="#A97C50" d="M46.56,7.922c-0.16-2.455,0.223-6.046,0.308-4.737
			C47.026,5.63,46.645,9.23,46.56,7.922z"/>
		<path fill-rule="evenodd" clip-rule="evenodd" fill="#A97C50" d="M47.48,7.922c-0.157-2.455,0.223-6.046,0.309-4.737
			C47.948,5.63,47.566,9.23,47.48,7.922z"/>
		<path fill-rule="evenodd" clip-rule="evenodd" fill="#A97C50" d="M48.098,3.185c1.025-3.264,0.496,9.783,0.308,14.202
			c-0.063,8.945,0.207,46.755-0.308,33.122C48.098,34.737,48.098,18.955,48.098,3.185z"/>
		<path fill-rule="evenodd" clip-rule="evenodd" fill="#A97C50" d="M50.249,17.386C49.762,45.068,49.749-27.202,50.249,17.386
			L50.249,17.386z"/>
		<path fill-rule="evenodd" clip-rule="evenodd" fill="#A97C50" d="M50.865,7.922c-0.159-2.455,0.224-6.046,0.308-4.737
			C51.332,5.63,50.95,9.23,50.865,7.922z"/>
		<path fill-rule="evenodd" clip-rule="evenodd" fill="#A97C50" d="M52.402,7.922c-0.158-2.455,0.223-6.046,0.309-4.737
			C52.867,5.63,52.488,9.23,52.402,7.922z"/>
		<path fill-rule="evenodd" clip-rule="evenodd" fill="#A97C50" d="M53.018,7.922c0.163-7.289,0.32-0.308,0.306,4.728
			C53.162,19.938,53.005,12.948,53.018,7.922z"/>
		<path fill-rule="evenodd" clip-rule="evenodd" fill="#A97C50" d="M53.634,7.922c0.048-5.546,0.56-3.995,0.92-4.737
			C54.506,8.731,53.993,7.181,53.634,7.922z"/>
		<path fill-rule="evenodd" clip-rule="evenodd" fill="#A97C50" d="M54.862,7.922c-0.159-2.455,0.225-6.046,0.309-4.737
			C55.33,5.63,54.947,9.23,54.862,7.922z"/>
		<path fill-rule="evenodd" clip-rule="evenodd" fill="#A97C50" d="M55.477,7.922c-0.157-2.455,0.223-6.046,0.309-4.737
			C55.944,5.63,55.563,9.23,55.477,7.922z"/>
		<path fill-rule="evenodd" clip-rule="evenodd" fill="#A97C50" d="M56.093,3.185c0.307,0,0.614,0,0.923,0
			c0.073,23.195-0.543,35.828-0.309,61.524c-0.642,17.236-0.201,21.819-0.614,42.585c0.218,22.08-0.526,22.08-0.308,0
			C55.573,67.751,56.305,42.737,56.093,3.185z"/>
		<path fill-rule="evenodd" clip-rule="evenodd" fill="#A97C50" d="M57.323,3.185c0.522-1.742,0.579,3.688,0.615,9.465
			c-0.263-0.867-0.291,1.849-0.307,4.737C57.27,16.615,57.368,8.75,57.323,3.185z"/>
		<path fill-rule="evenodd" clip-rule="evenodd" fill="#A97C50" d="M58.552,7.922c0.257-15.039,0.405,8.396,0.31,14.192
			C58.603,37.145,58.455,13.718,58.552,7.922z"/>
		<path fill-rule="evenodd" clip-rule="evenodd" fill="#A97C50" d="M59.166,7.922c-0.156-2.455,0.225-6.046,0.31-4.737
			C59.635,5.63,59.253,9.23,59.166,7.922z"/>
		<path fill-rule="evenodd" clip-rule="evenodd" fill="#A97C50" d="M61.32,3.185C60.646,17.636,59.35-2.273,61.32,3.185L61.32,3.185
			z"/>
		<path fill-rule="evenodd" clip-rule="evenodd" fill="#A97C50" d="M61.936,7.922c-0.16-2.455,0.223-6.046,0.307-4.737
			C62.401,5.63,62.021,9.23,61.936,7.922z"/>
		<path fill-rule="evenodd" clip-rule="evenodd" fill="#A97C50" d="M62.552,7.922c-0.159-2.455,0.221-6.046,0.308-4.737
			C63.018,5.63,62.636,9.23,62.552,7.922z"/>
		<path fill-rule="evenodd" clip-rule="evenodd" fill="#A97C50" d="M63.472,3.185c1.306-1.724,0.271,20.508,0.309,28.394
			C63.102,30.991,63.65,11.503,63.472,3.185z"/>
		<path fill-rule="evenodd" clip-rule="evenodd" fill="#A97C50" d="M65.933,3.185c0.438-0.403,0.871-0.779,0.925,4.737
			c0.013,12.103-0.229,5.768-0.616,4.728c0,7.885,0,15.772,0,23.667c0.3-0.134,0.238-5.796,0.31-9.464
			c0.651,31.936,0.08,57.325-0.31,89.907C65.974,81.396,66.058,53.599,65.933,3.185z"/>
		<path fill-rule="evenodd" clip-rule="evenodd" fill="#A97C50" d="M67.162,7.922c0.133-13.094,0.969-0.25,0.616,9.464
			c0,25.235,0,50.472,0,75.717c-0.407,20.382-0.277-13.884-0.307-28.395c-0.041-19.68,0.034-41.324,0-52.06
			C67.527,8.625,67.351,8.181,67.162,7.922z"/>
		<path fill-rule="evenodd" clip-rule="evenodd" fill="#A97C50" d="M68.702,3.185c0.308,0,0.613,0,0.922,0
			c-0.162,46.688,0.187,85.5,0.308,127.778c0.896-37.503-0.436-81.591,0-127.778c0.306,0,0.614,0,0.923,0
			c1.168-3.793,0.392,22.375,0.613,33.131c-0.916-0.096-0.393-22.329-0.922-28.394c-0.444,64.105,0.453,98.025,0.309,165.637
			c-0.361-0.771-0.259-8.628-0.309-14.201c-0.98,56.795-0.208,90.052-0.309,137.238c-1.483,7.07-1.282-11.794-1.228-28.392
			c-0.194-35.916,0.33-77.749,0.306-18.93c0,14.203,0,28.393,0,42.596c0.946-85.539-0.253-179.087,0-269.756
			C69.042,16.722,68.455,25.041,68.702,3.185z"/>
		<path fill-rule="evenodd" clip-rule="evenodd" fill="#A97C50" d="M72.392,3.185c0.357-0.769,0.545,1.05,0.615,4.737
			c0.563,71.809,0.213,157.625,0.308,236.624c0,6.31,0,12.612,0,18.932c0,6.306,0,12.611,0,18.928
			c0.024,6.709,0.052,13.4-0.308,14.19c0-6.307,0-12.611,0-18.929c0-12.622,0-25.234,0-37.859
			c-0.261-19.669-0.792-35.121-0.615-61.523c-0.328-17.677,0.763-13.488,0.615-28.395c0-36.278,0-72.566,0-108.846
			c-0.417,1.463-0.255,11.852-0.309,18.928C71.995,50.326,72.587,20.668,72.392,3.185z"/>
		<path fill-rule="evenodd" clip-rule="evenodd" fill="#A97C50" d="M71.776,12.649c0.26-15.03,0.406,8.395,0.309,14.203
			C71.825,41.881,71.677,18.445,71.776,12.649z"/>
		<path fill-rule="evenodd" clip-rule="evenodd" fill="#A97C50" d="M28.417,12.649c0.747,21.154,0.594,45.002,0.307,61.524
			C28.015,62.976,28.613,31.694,28.417,12.649z"/>
		<path fill-rule="evenodd" clip-rule="evenodd" fill="#A97C50" d="M60.397,17.386c-0.16-2.455,0.224-6.047,0.309-4.737
			C60.866,15.096,60.482,18.695,60.397,17.386z"/>
		<path fill-rule="evenodd" clip-rule="evenodd" fill="#A97C50" d="M21.035,22.114c0.059-5.373,0.308-2.629,0.308,0
			C21.285,27.487,21.034,24.742,21.035,22.114z"/>
		<path fill-rule="evenodd" clip-rule="evenodd" fill="#A97C50" d="M23.188,22.114c0.163-7.288,0.321-0.298,0.307,4.738
			C23.332,34.131,23.174,27.149,23.188,22.114z"/>
		<path fill-rule="evenodd" clip-rule="evenodd" fill="#A97C50" d="M50.865,22.114c0.163-7.288,0.32-0.298,0.308,4.738
			c0,6.305,0,12.613,0,18.928c0,12.613,0,25.235,0,37.857c-0.425,15.06-0.305-16.724-0.308-23.667
			C50.865,47.359,50.865,34.737,50.865,22.114z"/>
		<path fill-rule="evenodd" clip-rule="evenodd" fill="#A97C50" d="M51.479,22.114c-0.158-2.445,0.224-6.037,0.31-4.728
			C51.946,19.832,51.563,23.423,51.479,22.114z"/>
		<path fill-rule="evenodd" clip-rule="evenodd" fill="#A97C50" d="M53.939,22.114c0.619-7.664,0.176,41.285,0.309,56.789
			C53.438,60.309,54.035,48.563,53.939,22.114z"/>
		<path fill-rule="evenodd" clip-rule="evenodd" fill="#A97C50" d="M61.013,22.114c0.241-8.636,0.332,2.84,0.308,9.465
			c0,22.087,0,44.174,0,66.252c-0.238,8.637-0.329-2.832-0.308-9.464C61.013,66.289,61.013,44.202,61.013,22.114z"/>
		<path fill-rule="evenodd" clip-rule="evenodd" fill="#A97C50" d="M62.552,22.114c0.258-15.029,0.404,8.396,0.308,14.202
			C62.6,51.345,62.452,27.911,62.552,22.114z"/>
		<path fill-rule="evenodd" clip-rule="evenodd" fill="#A97C50" d="M4.121,26.852c0.059-5.375,0.309-2.63,0.308,0
			C4.371,32.224,4.121,29.48,4.121,26.852z"/>
		<path fill-rule="evenodd" clip-rule="evenodd" fill="#A97C50" d="M14.885,22.114c1.025,7.327,0.398,33.498,0.614,52.06
			c0.146,12.518,0.589,18.583,0.615,28.394c0.059,24.592,0.019,47.813-0.307,70.991c-0.101,7.171,0.303,23.751-0.615,18.929
			C16.068,138.192,15.062,75.589,14.885,22.114z"/>
		<path fill-rule="evenodd" clip-rule="evenodd" fill="#A97C50" d="M17.652,22.114c1.238,15.685,2.126,65.435,0.923,89.918
			C17.521,83.446,17.957,61.253,17.652,22.114z"/>
		<path fill-rule="evenodd" clip-rule="evenodd" fill="#A97C50" d="M18.882,26.852c0.059-5.375,0.309-2.63,0.308,0
			C19.131,32.224,18.881,29.48,18.882,26.852z"/>
		<path fill-rule="evenodd" clip-rule="evenodd" fill="#A97C50" d="M30.875,26.852c0.164-7.29,0.322-0.309,0.308,4.727
			C31.021,38.868,30.863,31.877,30.875,26.852z"/>
		<path fill-rule="evenodd" clip-rule="evenodd" fill="#A97C50" d="M61.628,26.852c0.163-7.29,0.322-0.309,0.308,4.727
			C61.772,38.868,61.613,31.877,61.628,26.852z"/>
		<path fill-rule="evenodd" clip-rule="evenodd" fill="#A97C50" d="M16.729,31.579c-0.159-2.446,0.224-6.037,0.309-4.727
			C17.197,29.297,16.814,32.888,16.729,31.579z"/>
		<path fill-rule="evenodd" clip-rule="evenodd" fill="#A97C50" d="M20.42,31.579c0.058-5.373,0.308-2.628,0.308,0
			C20.668,36.952,20.419,34.207,20.42,31.579z"/>
		<path fill-rule="evenodd" clip-rule="evenodd" fill="#A97C50" d="M45.945,26.852c0.522-1.744,0.577,3.687,0.614,9.464
			c-0.263-0.876-0.291,1.838-0.308,4.728C45.89,40.283,45.992,32.416,45.945,26.852z"/>
		<path fill-rule="evenodd" clip-rule="evenodd" fill="#A97C50" d="M51.479,36.316c0.354-15.319,0.348,12.709,0.31,18.93
			c-0.164,7.278-0.322,0.298-0.31-4.738C51.479,45.78,51.479,41.043,51.479,36.316z"/>
		<path fill-rule="evenodd" clip-rule="evenodd" fill="#A97C50" d="M54.554,36.316c-0.156-2.456,0.225-6.046,0.309-4.737
			C55.022,34.024,54.639,37.625,54.554,36.316z"/>
		<path fill-rule="evenodd" clip-rule="evenodd" fill="#A97C50" d="M60.397,36.316c-0.16-2.456,0.224-6.046,0.309-4.737
			C60.866,34.024,60.482,37.625,60.397,36.316z"/>
		<path fill-rule="evenodd" clip-rule="evenodd" fill="#A97C50" d="M18.882,41.043c-0.16-2.445,0.223-6.038,0.308-4.728
			C19.349,38.762,18.968,42.353,18.882,41.043z"/>
		<path fill-rule="evenodd" clip-rule="evenodd" fill="#A97C50" d="M19.498,41.043c0.258-15.031,0.405,8.406,0.308,14.202
			C19.547,70.275,19.399,46.839,19.498,41.043z"/>
		<path fill-rule="evenodd" clip-rule="evenodd" fill="#A97C50" d="M21.035,41.043c0.162-7.288,0.321-0.299,0.308,4.737
			C21.18,53.059,21.022,46.079,21.035,41.043z"/>
		<path fill-rule="evenodd" clip-rule="evenodd" fill="#A97C50" d="M22.879,36.316c1.023-3.264,0.496,9.783,0.308,14.192
			c0.153,19.978,0.524,41.248,0,66.251C22.476,99.314,23.08,61.628,22.879,36.316z"/>
		<path fill-rule="evenodd" clip-rule="evenodd" fill="#A97C50" d="M53.018,41.043c0.24-8.636,0.33,2.84,0.306,9.464
			c0,7.886,0,15.781,0,23.666c-0.238,8.638-0.33-2.84-0.306-9.464C53.018,56.824,53.018,48.928,53.018,41.043z"/>
		<path fill-rule="evenodd" clip-rule="evenodd" fill="#A97C50" d="M4.429,45.78c0.239-8.636,0.331,2.831,0.308,9.465
			C4.498,63.872,4.406,52.404,4.429,45.78z"/>
		<path fill-rule="evenodd" clip-rule="evenodd" fill="#A97C50" d="M9.657,45.78c0.424-15.068,0.304,16.715,0.307,23.657
			c0,12.624,0,25.246,0,37.857C8.711,95.077,9.781,68.233,9.657,45.78z"/>
		<path fill-rule="evenodd" clip-rule="evenodd" fill="#A97C50" d="M30.26,45.78c0.164-7.289,0.322-0.309,0.308,4.728
			C30.405,57.797,30.248,50.806,30.26,45.78z"/>
		<path fill-rule="evenodd" clip-rule="evenodd" fill="#A97C50" d="M31.799,45.78c0.163-7.289,0.319-0.309,0.307,4.728
			C31.943,57.797,31.785,50.806,31.799,45.78z"/>
		<path fill-rule="evenodd" clip-rule="evenodd" fill="#A97C50" d="M49.02,45.78c-0.161-2.455,0.224-6.046,0.307-4.737
			C49.487,43.489,49.104,47.09,49.02,45.78z"/>
		<path fill-rule="evenodd" clip-rule="evenodd" fill="#A97C50" d="M71.776,45.78c0.26-15.04,0.406,8.396,0.309,14.191
			c0,9.466,0,18.931,0,28.396c0.181,20.151-0.224,31.301-0.309,47.332C70.974,112.117,72.217,79.451,71.776,45.78z"/>
		<path fill-rule="evenodd" clip-rule="evenodd" fill="#A97C50" d="M3.198,50.508c-0.158-2.445,0.223-6.037,0.309-4.728
			C3.665,48.226,3.283,51.816,3.198,50.508z"/>
		<path fill-rule="evenodd" clip-rule="evenodd" fill="#A97C50" d="M54.554,45.78c0.807,9.715,0.468,37.011,0.923,52.05
			c-0.248,29.444,0.334,97.525-0.306,118.311C54.539,159.519,55.304,104.676,54.554,45.78z"/>
		<path fill-rule="evenodd" clip-rule="evenodd" fill="#A97C50" d="M60.397,50.508c0.354-15.308,0.35,12.709,0.309,18.929
			c-0.164,7.289-0.322,0.308-0.309-4.728C60.397,59.971,60.397,55.246,60.397,50.508z"/>
		<path fill-rule="evenodd" clip-rule="evenodd" fill="#A97C50" d="M61.628,50.508c0.163-7.289,0.322-0.298,0.308,4.738
			c0,6.306,0,12.613,0,18.928c0,12.623,0,25.236,0,37.859c-0.423,15.069-0.306-16.724-0.308-23.666
			C61.628,75.753,61.628,63.13,61.628,50.508z"/>
		<path fill-rule="evenodd" clip-rule="evenodd" fill="#A97C50" d="M68.702,50.508c0.62-3.967,0.286,15.549,0.308,23.666
			c0.077,30.147-0.06,80.581,0,113.576c-0.391-12.737-1.091-13.286-0.616-28.392c0-15.773,0-31.553,0-47.325
			C68.652,93.932,68.795,74.049,68.702,50.508z"/>
		<path fill-rule="evenodd" clip-rule="evenodd" fill="#A97C50" d="M5.044,55.246c-0.16-2.446,0.221-6.047,0.307-4.738
			C5.51,52.954,5.128,56.554,5.044,55.246z"/>
		<path fill-rule="evenodd" clip-rule="evenodd" fill="#A97C50" d="M7.812,55.246c0.059-5.374,0.309-2.629,0.308,0
			C8.061,60.617,7.811,57.873,7.812,55.246z"/>
		<path fill-rule="evenodd" clip-rule="evenodd" fill="#A97C50" d="M16.114,55.246c-0.159-2.446,0.223-6.047,0.308-4.738
			C16.582,52.954,16.201,56.554,16.114,55.246z"/>
		<path fill-rule="evenodd" clip-rule="evenodd" fill="#A97C50" d="M45.945,55.246c0.057-5.374,0.307-2.629,0.307,0
			C46.194,60.617,45.944,57.873,45.945,55.246z"/>
		<path fill-rule="evenodd" clip-rule="evenodd" fill="#A97C50" d="M57.016,55.246c0.162-7.289,0.321-0.3,0.308,4.726
			c0,6.317,0,12.623,0,18.931c0,12.622,0,25.244,0,37.856c-0.424,15.069-0.305-16.714-0.308-23.655
			C57.016,80.481,57.016,67.858,57.016,55.246z"/>
		<path fill-rule="evenodd" clip-rule="evenodd" fill="#A97C50" d="M59.784,55.246c0.059-5.374,0.306-2.629,0.306,0
			C60.032,60.617,59.783,57.873,59.784,55.246z"/>
		<path fill-rule="evenodd" clip-rule="evenodd" fill="#A97C50" d="M52.094,59.971c-0.156-2.444,0.224-6.036,0.309-4.726
			C52.562,57.69,52.18,61.282,52.094,59.971z"/>
		<path fill-rule="evenodd" clip-rule="evenodd" fill="#A97C50" d="M8.733,64.709c0.425-15.068,0.305,16.725,0.308,23.658
			c-0.345,14.913-0.028,10.715,0,28.392C7.656,108.787,9.021,84.602,8.733,64.709z"/>
		<path fill-rule="evenodd" clip-rule="evenodd" fill="#A97C50" d="M31.799,64.709c0.058-5.372,0.308-2.629,0.307,0
			C32.048,70.082,31.797,67.337,31.799,64.709z"/>
		<path fill-rule="evenodd" clip-rule="evenodd" fill="#A97C50" d="M34.566,64.709c-0.159-2.446,0.222-6.046,0.307-4.738
			C35.033,62.417,34.651,66.018,34.566,64.709z"/>
		<path fill-rule="evenodd" clip-rule="evenodd" fill="#A97C50" d="M1.969,69.437c-0.159-2.445,0.223-6.038,0.307-4.728
			C2.435,67.155,2.053,70.746,1.969,69.437z"/>
		<path fill-rule="evenodd" clip-rule="evenodd" fill="#A97C50" d="M52.094,69.437c0.165-7.28,0.321-0.3,0.309,4.736
			c0,4.729,0,9.464,0,14.193c0,11.043,0,22.086,0,33.13c-0.354,15.309-0.349-12.71-0.309-18.93
			C52.094,91.524,52.094,80.481,52.094,69.437z"/>
		<path fill-rule="evenodd" clip-rule="evenodd" fill="#A97C50" d="M5.044,74.173c0.162-7.288,0.319-0.299,0.307,4.729
			C5.189,86.19,5.031,79.209,5.044,74.173z"/>
		<path fill-rule="evenodd" clip-rule="evenodd" fill="#A97C50" d="M6.581,74.173c0.059-5.373,0.309-2.629,0.307,0
			C6.831,79.547,6.581,76.804,6.581,74.173z"/>
		<path fill-rule="evenodd" clip-rule="evenodd" fill="#A97C50" d="M44.101,74.173c-0.161-2.446,0.222-6.046,0.306-4.736
			C44.565,71.882,44.186,75.483,44.101,74.173z"/>
		<path fill-rule="evenodd" clip-rule="evenodd" fill="#A97C50" d="M51.479,74.173c0.163-7.288,0.322-0.299,0.31,4.729
			c0,4.735,0,9.464,0,14.201c0,9.464,0,18.929,0,28.394c-0.355,15.309-0.349-12.71-0.31-18.93
			C51.479,93.104,51.479,83.638,51.479,74.173z"/>
		<path fill-rule="evenodd" clip-rule="evenodd" fill="#A97C50" d="M58.861,74.173c0.24-8.637,0.331,2.832,0.305,9.464
			c0,7.887,0,15.772,0,23.656c-0.012,8.098,0.229,12.268,0.618,14.203c-0.011,4.602-0.378,3.668-0.618,4.738
			c0.522,4.583,0.79,13.074,0.618,28.394c-0.836,3.38,0.219-22.319-0.618-18.931c-0.698,6.557-0.112,32.94-0.305,47.324
			c-0.702-6.568-0.116-32.938-0.31-47.324c0.219-14.568,0.219-9.098,0-23.666C59.247,108.508,58.674,85.487,58.861,74.173z"/>
		<path fill-rule="evenodd" clip-rule="evenodd" fill="#A97C50" d="M72.392,74.173c-0.158-2.446,0.223-6.046,0.307-4.736
			C72.858,71.882,72.477,75.483,72.392,74.173z"/>
		<path fill-rule="evenodd" clip-rule="evenodd" fill="#A97C50" d="M1.662,78.902c-0.159-2.446,0.222-6.039,0.307-4.729
			C2.129,76.621,1.747,80.212,1.662,78.902z"/>
		<path fill-rule="evenodd" clip-rule="evenodd" fill="#A97C50" d="M3.813,74.173c1.051,9.08,0.463,43.356,0.615,66.253
			C3.221,133.772,4.066,95.549,3.813,74.173z"/>
		<path fill-rule="evenodd" clip-rule="evenodd" fill="#A97C50" d="M19.498,78.902c0.354-15.31,0.348,12.709,0.308,18.928
			c-0.163,7.289-0.322,0.309-0.308-4.727C19.498,88.367,19.498,83.638,19.498,78.902z"/>
		<path fill-rule="evenodd" clip-rule="evenodd" fill="#A97C50" d="M35.489,78.902c0.829-9.35-0.237,50.779,0.615,56.796
			C34.976,149.649,35.682,95.039,35.489,78.902z"/>
		<path fill-rule="evenodd" clip-rule="evenodd" fill="#A97C50" d="M45.945,78.902c-0.16-2.446,0.223-6.039,0.307-4.729
			C46.411,76.621,46.028,80.212,45.945,78.902z"/>
		<path fill-rule="evenodd" clip-rule="evenodd" fill="#A97C50" d="M24.11,83.638c-0.16-2.443,0.221-6.045,0.308-4.735
			C24.577,81.358,24.194,84.948,24.11,83.638z"/>
		<path fill-rule="evenodd" clip-rule="evenodd" fill="#A97C50" d="M29.031,78.902c1.116-4.555,0.258,21.268,1.229,18.928
			c0,28.404,0,56.798,0,85.192c-1.004-14.509-0.487-52.427-0.614-80.455c-0.109-7.413-0.541,4.141-0.616-4.737
			C29.031,91.524,29.031,85.217,29.031,78.902z"/>
		<path fill-rule="evenodd" clip-rule="evenodd" fill="#A97C50" d="M34.874,83.638c0.162-7.287,0.322-0.297,0.308,4.729
			C35.018,95.655,34.859,88.674,34.874,83.638z"/>
		<path fill-rule="evenodd" clip-rule="evenodd" fill="#A97C50" d="M38.257,83.638c-0.157-2.443,0.22-6.045,0.307-4.735
			C38.724,81.358,38.343,84.948,38.257,83.638z"/>
		<path fill-rule="evenodd" clip-rule="evenodd" fill="#A97C50" d="M45.328,83.638c0.238-8.636,0.33,2.832,0.31,9.466
			C45.398,101.739,45.307,90.263,45.328,83.638z"/>
		<path fill-rule="evenodd" clip-rule="evenodd" fill="#A97C50" d="M49.636,83.638c0.421-15.067,0.304,16.725,0.308,23.656
			C49.519,122.364,49.639,90.581,49.636,83.638z"/>
		<path fill-rule="evenodd" clip-rule="evenodd" fill="#A97C50" d="M43.484,88.367c-0.16-2.447,0.223-6.037,0.308-4.729
			C43.949,86.084,43.569,89.676,43.484,88.367z"/>
		<path fill-rule="evenodd" clip-rule="evenodd" fill="#A97C50" d="M45.945,88.367c-0.16-2.447,0.223-6.037,0.307-4.729
			C46.411,86.084,46.028,89.676,45.945,88.367z"/>
		<path fill-rule="evenodd" clip-rule="evenodd" fill="#A97C50" d="M66.857,83.638c0.589,15.877,0.392,70.692,0.305,104.111
			c-0.026,11.004-0.016,63.055-0.305,28.393c-0.081-9.473,0.054-29.403,0-56.784C66.857,134.12,66.857,108.875,66.857,83.638z"/>
		<path fill-rule="evenodd" clip-rule="evenodd" fill="#A97C50" d="M5.351,93.104c0.059-5.373,0.308-2.629,0.308,0
			C5.601,98.476,5.35,95.732,5.351,93.104z"/>
		<path fill-rule="evenodd" clip-rule="evenodd" fill="#A97C50" d="M24.11,88.367c0.72,1.213,0.177,20.796,0,23.666
			c0,9.465,0,18.93,0,28.394c0.051,5.507-0.068,8.424-0.307,9.463c0-4.726,0-9.463,0-14.191
			C23.741,117.414,23.792,100.825,24.11,88.367z"/>
		<path fill-rule="evenodd" clip-rule="evenodd" fill="#A97C50" d="M25.956,93.104c0.059-5.373,0.309-2.629,0.307,0
			C26.205,98.476,25.955,95.732,25.956,93.104z"/>
		<path fill-rule="evenodd" clip-rule="evenodd" fill="#A97C50" d="M31.491,93.104c-0.159-2.446,0.222-6.047,0.308-4.737
			C31.957,90.821,31.575,94.412,31.491,93.104z"/>
		<path fill-rule="evenodd" clip-rule="evenodd" fill="#A97C50" d="M41.639,93.104c0.588-21.779,1.225,31.783,0,23.655
			C41.721,102.885,42.063,99.188,41.639,93.104z"/>
		<path fill-rule="evenodd" clip-rule="evenodd" fill="#A97C50" d="M52.711,93.104c0.423-15.068,0.305,16.724,0.307,23.655
			C52.594,131.828,52.715,100.045,52.711,93.104z"/>
		<path fill-rule="evenodd" clip-rule="evenodd" fill="#A97C50" d="M59.784,93.104c0.059-5.373,0.306-2.629,0.306,0
			C60.032,98.476,59.783,95.732,59.784,93.104z"/>
		<path fill-rule="evenodd" clip-rule="evenodd" fill="#A97C50" d="M6.888,97.831c0.259-15.03,0.407,8.406,0.308,14.202
			C6.938,127.063,6.792,103.636,6.888,97.831z"/>
		<path fill-rule="evenodd" clip-rule="evenodd" fill="#A97C50" d="M38.257,97.831c0.058-5.372,0.309-2.629,0.307,0
			C38.506,103.203,38.256,100.459,38.257,97.831z"/>
		<path fill-rule="evenodd" clip-rule="evenodd" fill="#A97C50" d="M50.249,93.104c0.513,36.059,0.431,96.562,0.308,127.776
			C49.843,187.712,50.453,134.148,50.249,93.104z"/>
		<path fill-rule="evenodd" clip-rule="evenodd" fill="#A97C50" d="M53.634,97.831c0.237-8.627,0.328,2.841,0.306,9.463
			C53.701,115.932,53.609,104.464,53.634,97.831z"/>
		<path fill-rule="evenodd" clip-rule="evenodd" fill="#A97C50" d="M62.242,93.104c1.63,29.288,0.439,76.842,0.617,123.038
			c-0.299-0.126-0.239-5.787-0.308-9.463c-1.022,24.916,0.712,63.921-0.31,89.917c-0.713-26.872-0.104-74.099-0.307-108.847
			c0.362,0.771,0.259,8.629,0.307,14.2C62.522,169.898,62.421,132.156,62.242,93.104z"/>
		<path fill-rule="evenodd" clip-rule="evenodd" fill="#A97C50" d="M30.875,102.567c-0.158-2.444,0.223-6.046,0.308-4.737
			C31.342,100.287,30.961,103.877,30.875,102.567z"/>
		<path fill-rule="evenodd" clip-rule="evenodd" fill="#A97C50" d="M31.491,97.831c0.274,2.917,0.55,5.719,0.615,0
			c0.856,34.133,0.066,70.545,0.309,118.311c-0.694-3.522-0.121-26.544-0.309-37.857c0.039-8.481-0.376-9.974-0.307-18.927
			c0.053-25.093,0.199-24.149,0-47.325C31.636,108.229,31.478,104.349,31.491,97.831z"/>
		<path fill-rule="evenodd" clip-rule="evenodd" fill="#A97C50" d="M10.58,107.294c-0.159-2.444,0.222-6.035,0.306-4.727
			C11.044,105.013,10.665,108.605,10.58,107.294z"/>
		<path fill-rule="evenodd" clip-rule="evenodd" fill="#A97C50" d="M22.264,107.294c0.239-8.626,0.332,2.842,0.309,9.465
			c0.051,15.06,0.721,34.845,0,47.334C21.867,154.445,22.461,124.789,22.264,107.294z"/>
		<path fill-rule="evenodd" clip-rule="evenodd" fill="#A97C50" d="M25.956,107.294c0.059-5.362,0.309-2.618,0.307,0
			C26.205,112.667,25.955,109.923,25.956,107.294z"/>
		<path fill-rule="evenodd" clip-rule="evenodd" fill="#A97C50" d="M26.878,102.567c1.028,8.935,0.195,19.111,0.308,37.859
			C26.492,136.902,27.066,113.881,26.878,102.567z"/>
		<path fill-rule="evenodd" clip-rule="evenodd" fill="#A97C50" d="M45.328,102.567c0.395,7.78,0.799,25.679,0.31,33.131
			C44.948,133.658,45.51,112.369,45.328,102.567z"/>
		<path fill-rule="evenodd" clip-rule="evenodd" fill="#A97C50" d="M1.969,107.294c0.769,21.685,0.224,47.499,0.615,66.265
			c0.007,11.148-0.53,13.932-0.308,28.391c0.224,17.118-0.53,17.118-0.307,0c0-20.505,0-41.014,0-61.523
			C2.072,125.753,1.256,117.819,1.969,107.294z"/>
		<path fill-rule="evenodd" clip-rule="evenodd" fill="#A97C50" d="M3.198,112.032c0.059-5.373,0.309-2.629,0.309,0
			C3.448,117.405,3.198,114.66,3.198,112.032z"/>
		<path fill-rule="evenodd" clip-rule="evenodd" fill="#A97C50" d="M7.503,112.032c0.076-5.951,0.611-4.776,0.616,0
			c-0.036,23.108,0.166,49.875-0.308,66.252C6.967,166.501,7.895,116.847,7.503,112.032z"/>
		<path fill-rule="evenodd" clip-rule="evenodd" fill="#A97C50" d="M20.728,112.032c0.475-14.472,0.27,20.528,0.308,28.394
			c0.178,15.367-0.209,22.02-0.308,33.132C20.15,162.821,21.087,135.111,20.728,112.032z"/>
		<path fill-rule="evenodd" clip-rule="evenodd" fill="#A97C50" d="M30.875,112.032c0.164-7.289,0.322-0.298,0.308,4.727
			c0,4.738,0,9.476,0,14.204c0,11.043,0,22.086,0,33.13c-0.354,15.31-0.348-12.709-0.308-18.929
			C30.875,134.12,30.875,123.075,30.875,112.032z"/>
		<path fill-rule="evenodd" clip-rule="evenodd" fill="#A97C50" d="M19.19,112.032c1.066,2.802,0.759,23.359,0.615,33.131
			C19.329,138.279,19.16,126.696,19.19,112.032z"/>
		<path fill-rule="evenodd" clip-rule="evenodd" fill="#A97C50" d="M5.351,116.759c0.867,4.786-0.085,20.106,0,28.405
			C4.418,139.328,5.685,128.882,5.351,116.759z"/>
		<path fill-rule="evenodd" clip-rule="evenodd" fill="#A97C50" d="M25.956,121.497c0.239-8.637,0.331,2.83,0.307,9.465
			c0,7.884,0,15.77,0,23.667c-0.239,8.625-0.329-2.839-0.307-9.465C25.956,137.268,25.956,129.383,25.956,121.497z"/>
		<path fill-rule="evenodd" clip-rule="evenodd" fill="#A97C50" d="M38.257,121.497c-0.157-2.446,0.22-6.038,0.307-4.738
			C38.724,119.215,38.343,122.805,38.257,121.497z"/>
		<path fill-rule="evenodd" clip-rule="evenodd" fill="#A97C50" d="M2.892,126.235c-0.16-2.457,0.222-6.047,0.307-4.738
			C3.357,123.942,2.977,127.544,2.892,126.235z"/>
		<path fill-rule="evenodd" clip-rule="evenodd" fill="#A97C50" d="M8.427,126.235c0.239-8.638,0.331,2.83,0.307,9.463
			C8.496,144.326,8.403,132.859,8.427,126.235z"/>
		<path fill-rule="evenodd" clip-rule="evenodd" fill="#A97C50" d="M41.947,126.235c-0.159-2.457,0.223-6.047,0.307-4.738
			C42.415,123.942,42.033,127.544,41.947,126.235z"/>
		<path fill-rule="evenodd" clip-rule="evenodd" fill="#A97C50" d="M57.938,126.235c0.161-7.29,0.319-0.308,0.308,4.728
			c0,6.305,0,12.622,0,18.927c0,12.625,0,25.246,0,37.86c-0.425,15.067-0.305-16.725-0.308-23.656
			C57.938,151.47,57.938,138.847,57.938,126.235z"/>
		<path fill-rule="evenodd" clip-rule="evenodd" fill="#A97C50" d="M65.933,126.235c0.06-5.374,0.31-2.629,0.309,0
			C66.183,131.598,65.932,128.854,65.933,126.235z"/>
		<path fill-rule="evenodd" clip-rule="evenodd" fill="#A97C50" d="M13.962,130.962c-0.159-2.447,0.222-6.039,0.307-4.728
			C14.429,128.68,14.047,132.271,13.962,130.962z"/>
		<path fill-rule="evenodd" clip-rule="evenodd" fill="#A97C50" d="M14.885,130.962c0.058-5.373,0.308-2.629,0.307,0
			C15.133,136.335,14.883,133.59,14.885,130.962z"/>
		<path fill-rule="evenodd" clip-rule="evenodd" fill="#A97C50" d="M3.198,135.698c0.163-7.288,0.321-0.307,0.309,4.728
			C3.344,147.713,3.185,140.724,3.198,135.698z"/>
		<path fill-rule="evenodd" clip-rule="evenodd" fill="#A97C50" d="M18.268,135.698c0.238-8.636,0.331,2.831,0.308,9.465
			C18.335,153.792,18.244,142.323,18.268,135.698z"/>
		<path fill-rule="evenodd" clip-rule="evenodd" fill="#A97C50" d="M25.34,135.698c0.239-8.636,0.331,2.831,0.308,9.465
			c0,6.306,0,12.613,0,18.929c0,12.612,0,25.236,0,37.856c-0.476,14.463-0.271-20.524-0.308-28.391
			C25.34,160.936,25.34,148.312,25.34,135.698z"/>
		<path fill-rule="evenodd" clip-rule="evenodd" fill="#A97C50" d="M36.412,135.698c0.058-5.373,0.309-2.628,0.307,0
			C36.66,141.062,36.412,138.317,36.412,135.698z"/>
		<path fill-rule="evenodd" clip-rule="evenodd" fill="#A97C50" d="M42.254,135.698c-0.16-2.454,0.223-6.045,0.308-4.736
			C42.721,133.407,42.34,137.008,42.254,135.698z"/>
		<path fill-rule="evenodd" clip-rule="evenodd" fill="#A97C50" d="M47.176,130.962c0.442,1.067,0.106,14.124,0.613,14.201
			c-0.417,20.692-0.074,23.793-0.309,47.324c-0.177,8.317,0.373,27.804-0.305,28.393c0-9.466,0-18.931,0-28.393
			c0.252-13.375-0.435-12.268-0.309-23.665C47.563,165.297,46.987,142.275,47.176,130.962z"/>
		<path fill-rule="evenodd" clip-rule="evenodd" fill="#A97C50" d="M52.094,135.698c-0.156-2.454,0.224-6.045,0.309-4.736
			C52.562,133.407,52.18,137.008,52.094,135.698z"/>
		<path fill-rule="evenodd" clip-rule="evenodd" fill="#A97C50" d="M9.042,140.426c0.355-15.309,0.349,12.709,0.309,18.931
			c-0.164,7.286-0.322,0.298-0.309-4.729C9.042,149.889,9.042,145.164,9.042,140.426z"/>
		<path fill-rule="evenodd" clip-rule="evenodd" fill="#A97C50" d="M65.319,135.698c0.636,1.214,0.085,20.79,0.613,23.659
			c0,20.505,0,41.015,0,61.522c-0.703-8.098-0.112-36.125-0.31-52.058C65.527,157.71,65.14,151.056,65.319,135.698z"/>
		<path fill-rule="evenodd" clip-rule="evenodd" fill="#A97C50" d="M11.501,145.164c0.239-8.637,0.332,2.831,0.308,9.465
			C11.57,163.254,11.479,151.79,11.501,145.164z"/>
		<path fill-rule="evenodd" clip-rule="evenodd" fill="#A97C50" d="M20.112,145.164c-0.158-2.456,0.223-6.048,0.308-4.737
			C20.579,142.872,20.197,146.472,20.112,145.164z"/>
		<path fill-rule="evenodd" clip-rule="evenodd" fill="#A97C50" d="M24.418,145.164c0.475-14.471,0.271,20.528,0.306,28.395
			c0,14.19,0,28.391,0,42.583c-0.417,1.475-0.254,11.854-0.306,18.929C23.491,209.636,24.619,175.186,24.418,145.164z"/>
		<path fill-rule="evenodd" clip-rule="evenodd" fill="#A97C50" d="M42.254,140.426c0.848,15.542,0.462,34.796,0.308,56.789
			C41.854,187.566,42.449,157.913,42.254,140.426z"/>
		<path fill-rule="evenodd" clip-rule="evenodd" fill="#A97C50" d="M45.328,145.164c0.077-5.96,0.613-4.776,0.617,0
			C45.672,148.071,45.396,150.881,45.328,145.164z"/>
		<path fill-rule="evenodd" clip-rule="evenodd" fill="#A97C50" d="M8.427,149.889c0.163-7.287,0.32-0.297,0.307,4.74
			C8.572,161.907,8.414,154.927,8.427,149.889z"/>
		<path fill-rule="evenodd" clip-rule="evenodd" fill="#A97C50" d="M13.962,149.889c0.058-5.371,0.308-2.627,0.307,0
			C14.211,155.264,13.961,152.52,13.962,149.889z"/>
		<path fill-rule="evenodd" clip-rule="evenodd" fill="#A97C50" d="M27.493,187.749c-0.879-0.654-0.562-19.74-0.615-33.12
			c-0.039-11.709,0.375-8.05,0.308,0c0,6.307,0,12.613,0,18.93C27.348,177.36,27.506,181.24,27.493,187.749z"/>
		<path fill-rule="evenodd" clip-rule="evenodd" fill="#A97C50" d="M34.874,149.889c-0.158-2.444,0.223-6.035,0.308-4.726
			C35.34,147.608,34.959,151.199,34.874,149.889z"/>
		<path fill-rule="evenodd" clip-rule="evenodd" fill="#A97C50" d="M41.639,149.889c0.059-5.371,0.31-2.627,0.309,0
			C41.888,155.264,41.636,152.52,41.639,149.889z"/>
		<path fill-rule="evenodd" clip-rule="evenodd" fill="#A97C50" d="M48.714,149.889c0.354-15.307,0.348,12.711,0.306,18.933
			c-0.256,13.374,0.436,12.265,0.307,23.665c-0.666-0.801-0.139,16.781-0.307,23.654C48.31,203.385,48.911,170.506,48.714,149.889z"
			/>
		<path fill-rule="evenodd" clip-rule="evenodd" fill="#A97C50" d="M1.353,154.629c0.059-5.375,0.309-2.629,0.309,0
			C1.603,160.002,1.353,157.257,1.353,154.629z"/>
		<path fill-rule="evenodd" clip-rule="evenodd" fill="#A97C50" d="M3.198,154.629c0.354-15.32,0.348,12.71,0.309,18.93
			c-0.163,7.278-0.322,0.298-0.309-4.736C3.198,164.093,3.198,159.357,3.198,154.629z"/>
		<path fill-rule="evenodd" clip-rule="evenodd" fill="#A97C50" d="M4.121,154.629c0.137-6.885,0.271,0.481,0.616,0
			C4.66,160.58,4.124,159.394,4.121,154.629z"/>
		<path fill-rule="evenodd" clip-rule="evenodd" fill="#A97C50" d="M12.425,154.629c-0.159-2.456,0.222-6.048,0.307-4.74
			C12.89,152.337,12.509,155.938,12.425,154.629z"/>
		<path fill-rule="evenodd" clip-rule="evenodd" fill="#A97C50" d="M28.107,154.629c0.239-8.638,0.332,2.831,0.309,9.464
			c0,6.309,0,12.612,0,18.93c0,12.613,0,25.234,0,37.857c-0.477,14.461-0.271-20.526-0.309-28.393
			C28.107,179.862,28.107,167.242,28.107,154.629z"/>
		<path fill-rule="evenodd" clip-rule="evenodd" fill="#A97C50" d="M38.563,154.629c0.239-8.638,0.33,2.831,0.307,9.464
			C38.632,172.721,38.541,161.252,38.563,154.629z"/>
		<path fill-rule="evenodd" clip-rule="evenodd" fill="#A97C50" d="M19.805,159.357c-0.159-2.448,0.223-6.039,0.307-4.729
			C20.272,157.076,19.89,160.666,19.805,159.357z"/>
		<path fill-rule="evenodd" clip-rule="evenodd" fill="#A97C50" d="M5.044,164.093c0.354-15.319,0.348,12.709,0.307,18.93
			c-0.162,7.28-0.32,0.298-0.307-4.738C5.044,173.559,5.044,168.822,5.044,164.093z"/>
		<path fill-rule="evenodd" clip-rule="evenodd" fill="#A97C50" d="M34.874,164.093c0.059-5.372,0.308-2.629,0.308,0
			C35.122,169.465,34.873,166.722,34.874,164.093z"/>
		<path fill-rule="evenodd" clip-rule="evenodd" fill="#A97C50" d="M59.476,164.093c-0.159-2.454,0.224-6.045,0.309-4.735
			C59.941,161.802,59.562,165.402,59.476,164.093z"/>
		<path fill-rule="evenodd" clip-rule="evenodd" fill="#A97C50" d="M1.353,168.822c0.424-15.061,0.305,16.722,0.309,23.665
			c0,11.044,0,22.087,0,33.121c0.151,16.598,0.458,30.811,0.307,52.059C0.917,254.417,1.508,205.889,1.353,168.822z"/>
		<path fill-rule="evenodd" clip-rule="evenodd" fill="#A97C50" d="M19.805,168.822c-0.159-2.448,0.223-6.036,0.307-4.729
			C20.272,166.539,19.89,170.131,19.805,168.822z"/>
		<path fill-rule="evenodd" clip-rule="evenodd" fill="#A97C50" d="M53.323,168.822c-0.156-2.448,0.225-6.036,0.311-4.729
			C53.792,166.539,53.411,170.131,53.323,168.822z"/>
		<path fill-rule="evenodd" clip-rule="evenodd" fill="#A97C50" d="M22.264,173.559c-0.158-2.445,0.224-6.047,0.309-4.736
			C22.731,171.266,22.35,174.867,22.264,173.559z"/>
		<path fill-rule="evenodd" clip-rule="evenodd" fill="#A97C50" d="M23.495,173.559c0.239-8.638,0.332,2.831,0.309,9.464
			c0,20.509,0,41.015,0,61.523c-0.581,7.829-0.28-14.451-0.309-28.404C23.465,201.113,23.52,184.119,23.495,173.559z"/>
		<path fill-rule="evenodd" clip-rule="evenodd" fill="#A97C50" d="M27.493,187.749c0.752,0.529,0.065,15.646-0.307,14.2
			c-0.256,14.982,0.125,39.767-0.923,42.597c0.157-31.089-0.285-55.353,0-75.724c0.668-0.802,0.14,16.79,0.308,23.665
			C27.014,182.012,27.32,198.446,27.493,187.749z M26.878,211.414c0.023-6.632-0.069-18.099-0.308-9.465
			C26.547,208.576,26.639,220.051,26.878,211.414z"/>
		<path fill-rule="evenodd" clip-rule="evenodd" fill="#A97C50" d="M37.949,173.559c-0.16-2.445,0.222-6.047,0.308-4.736
			C38.416,171.266,38.033,174.867,37.949,173.559z"/>
		<path fill-rule="evenodd" clip-rule="evenodd" fill="#A97C50" d="M59.476,168.822c0.704,9.646,0.112,39.301,0.309,56.786
			c0.691-3.526,0.12-26.537,0.306-37.859c0.591-10.282,0.195,34.604,0.308,47.321c-1.569,2.101-0.695-33.465-0.922-52.048
			C59.105,176.802,59.354,175.579,59.476,168.822z"/>
		<path fill-rule="evenodd" clip-rule="evenodd" fill="#A97C50" d="M13.039,178.284c-0.158-2.442,0.222-6.037,0.308-4.726
			C13.506,176.002,13.125,179.595,13.039,178.284z"/>
		<path fill-rule="evenodd" clip-rule="evenodd" fill="#A97C50" d="M13.655,178.284c0.162-7.279,0.32-0.296,0.307,4.738
			c0,4.727,0,9.465,0,14.192c0,9.464,0,18.927,0,28.394c-0.355,15.317-0.348-12.699-0.307-18.93
			C13.655,197.215,13.655,187.749,13.655,178.284z"/>
		<path fill-rule="evenodd" clip-rule="evenodd" fill="#A97C50" d="M30.875,178.284c-0.158-2.442,0.223-6.037,0.308-4.726
			C31.342,176.002,30.961,179.595,30.875,178.284z"/>
		<path fill-rule="evenodd" clip-rule="evenodd" fill="#A97C50" d="M31.491,178.284c0.951-12.776-0.538,52.251,0.923,47.324
			C31.326,253.387,31.426,197.907,31.491,178.284z"/>
		<path fill-rule="evenodd" clip-rule="evenodd" fill="#A97C50" d="M38.563,178.284c0.239-8.636,0.33,2.843,0.307,9.465
			c0,7.887,0,15.782,0,23.665c-0.238,8.637-0.329-2.838-0.307-9.465C38.563,194.066,38.563,186.17,38.563,178.284z"/>
		<path fill-rule="evenodd" clip-rule="evenodd" fill="#A97C50" d="M4.121,178.284c0.97,8.03,0.382,22.009,0.308,37.857
			C3.735,212.619,4.309,189.598,4.121,178.284z"/>
		<path fill-rule="evenodd" clip-rule="evenodd" fill="#A97C50" d="M52.711,183.022c0.423-15.069,0.305,16.723,0.307,23.656
			c-0.223,14.479,0.53,13.922,0.306,28.392c0.077,20.096-0.802,25.488-0.612,47.335C52.172,259.8,53.048,218.316,52.711,183.022z"/>
		<path fill-rule="evenodd" clip-rule="evenodd" fill="#A97C50" d="M53.323,183.022c0.165-7.288,0.321-0.298,0.311,4.727
			C53.47,195.037,53.311,188.058,53.323,183.022z"/>
		<path fill-rule="evenodd" clip-rule="evenodd" fill="#A97C50" d="M3.198,187.749c0.239-8.625,0.331,2.842,0.309,9.466
			C3.268,205.852,3.175,194.383,3.198,187.749z"/>
		<path fill-rule="evenodd" clip-rule="evenodd" fill="#A97C50" d="M13.039,183.022c0.444,1.137,0.715,38.944-0.308,33.119
			C13.218,202.789,12.378,196.049,13.039,183.022z"/>
		<path fill-rule="evenodd" clip-rule="evenodd" fill="#A97C50" d="M14.577,187.749c0.162-7.277,0.321-0.299,0.309,4.738
			c0,4.728,0,9.462,0,14.191c0,11.044,0,22.085,0,33.129c-0.354,15.313-0.349-12.709-0.309-18.928
			C14.577,209.836,14.577,198.793,14.577,187.749z"/>
		<path fill-rule="evenodd" clip-rule="evenodd" fill="#A97C50" d="M68.084,187.749c0.261-15.028,0.408,8.408,0.31,14.2
			c0,9.465,0,18.931,0,28.395c-0.258,15.029-0.404-8.395-0.31-14.202C68.084,206.679,68.084,197.215,68.084,187.749z"/>
		<path fill-rule="evenodd" clip-rule="evenodd" fill="#A97C50" d="M70.546,187.749c0.239-8.625,0.331,2.842,0.309,9.466
			C70.615,205.852,70.523,194.383,70.546,187.749z"/>
		<path fill-rule="evenodd" clip-rule="evenodd" fill="#A97C50" d="M29.031,192.487c0.059-5.375,0.308-2.627,0.307,0
			C29.28,197.859,29.03,195.114,29.031,192.487z"/>
		<path fill-rule="evenodd" clip-rule="evenodd" fill="#A97C50" d="M33.643,192.487c0.164-7.289,0.321-0.299,0.308,4.728
			C33.789,204.501,33.63,197.522,33.643,192.487z"/>
		<path fill-rule="evenodd" clip-rule="evenodd" fill="#A97C50" d="M37.949,192.487c0.061-5.375,0.309-2.627,0.308,0
			C38.198,197.859,37.948,195.114,37.949,192.487z"/>
		<path fill-rule="evenodd" clip-rule="evenodd" fill="#A97C50" d="M5.044,197.215c0.059-5.373,0.309-2.63,0.307,0
			C5.293,202.586,5.044,199.843,5.044,197.215z"/>
		<path fill-rule="evenodd" clip-rule="evenodd" fill="#A97C50" d="M41.026,197.215c-0.162-2.445,0.22-6.037,0.306-4.728
			C41.49,194.933,41.111,198.522,41.026,197.215z"/>
		<path fill-rule="evenodd" clip-rule="evenodd" fill="#A97C50" d="M41.639,197.215c0.259-15.028,0.405,8.404,0.309,14.199
			C41.689,226.445,41.542,203.02,41.639,197.215z"/>
		<path fill-rule="evenodd" clip-rule="evenodd" fill="#A97C50" d="M51.788,197.215c0.238-8.627,0.331,2.838,0.306,9.464
			C51.855,215.314,51.765,203.848,51.788,197.215z"/>
		<path fill-rule="evenodd" clip-rule="evenodd" fill="#A97C50" d="M58.861,197.215c0.24-8.627,0.331,2.838,0.305,9.464
			c0,6.313,0,12.622,0,18.93c-0.238,8.635-0.329-2.832-0.305-9.467C58.861,209.836,58.861,203.531,58.861,197.215z"/>
		<path fill-rule="evenodd" clip-rule="evenodd" fill="#A97C50" d="M15.192,201.949c0.059-5.372,0.309-2.626,0.307,0
			C15.441,207.322,15.191,204.579,15.192,201.949z"/>
		<path fill-rule="evenodd" clip-rule="evenodd" fill="#A97C50" d="M11.501,206.679c0.06-5.372,0.309-2.629,0.308,0
			C11.75,212.052,11.501,209.309,11.501,206.679z"/>
		<path fill-rule="evenodd" clip-rule="evenodd" fill="#A97C50" d="M41.026,206.679c-0.162-2.446,0.22-6.036,0.306-4.729
			C41.49,204.397,41.111,207.988,41.026,206.679z"/>
		<path fill-rule="evenodd" clip-rule="evenodd" fill="#A97C50" d="M42.869,201.949c1.115,4.297,0.187,13.962,0.307,28.395
			c0.126,17.072-0.562,6.489-0.307-4.735C42.837,213.843,42.294,210.963,42.869,201.949z"/>
		<path fill-rule="evenodd" clip-rule="evenodd" fill="#A97C50" d="M22.879,211.414c0.059-5.369,0.309-2.628,0.308,0
			C23.128,216.79,22.879,214.043,22.879,211.414z"/>
		<path fill-rule="evenodd" clip-rule="evenodd" fill="#A97C50" d="M15.192,216.142c0.424-15.058,0.305,16.724,0.307,23.666
			C15.077,254.877,15.195,223.086,15.192,216.142z"/>
		<path fill-rule="evenodd" clip-rule="evenodd" fill="#A97C50" d="M33.643,216.142c0.058-5.374,0.309-2.627,0.308,0
			C33.893,221.514,33.642,218.771,33.643,216.142z"/>
		<path fill-rule="evenodd" clip-rule="evenodd" fill="#A97C50" d="M37.641,216.142c0.626-17.887,0.882,16.31,0.309,18.929
			c-0.332,18.556,0.712,58.291-0.616,61.525c-0.236-30.855,0.397-61.427,0-80.454C37.686,221.823,38.113,217.99,37.641,216.142z"/>
		<path fill-rule="evenodd" clip-rule="evenodd" fill="#A97C50" d="M41.026,220.88c0.256-15.028,0.405,8.397,0.306,14.19
			c0.2,4.815,0.706,4.9,0.615,14.204c-0.249-2.507-0.499-4.942-0.921-4.729C41.026,236.649,41.026,228.764,41.026,220.88z"/>
		<path fill-rule="evenodd" clip-rule="evenodd" fill="#A97C50" d="M5.966,225.608c0.424-15.061,0.304,16.724,0.308,23.666
			C5.85,264.342,5.97,232.548,5.966,225.608z"/>
		<path fill-rule="evenodd" clip-rule="evenodd" fill="#A97C50" d="M9.042,225.608c0.259-15.031,0.405,8.404,0.309,14.199
			c0,9.467,0,18.933,0,28.396c-0.259,15.028-0.407-8.395-0.309-14.193C9.042,244.546,9.042,235.07,9.042,225.608z"/>
		<path fill-rule="evenodd" clip-rule="evenodd" fill="#A97C50" d="M13.039,225.608c-0.158-2.447,0.222-6.038,0.308-4.729
			C13.506,223.325,13.125,226.916,13.039,225.608z"/>
		<path fill-rule="evenodd" clip-rule="evenodd" fill="#A97C50" d="M16.114,225.608c0.059-5.365,0.31-2.618,0.308,0
			C16.363,230.98,16.113,228.234,16.114,225.608z"/>
		<path fill-rule="evenodd" clip-rule="evenodd" fill="#A97C50" d="M29.031,225.608c0.059-5.365,0.308-2.618,0.307,0
			C29.28,230.98,29.03,228.234,29.031,225.608z"/>
		<path fill-rule="evenodd" clip-rule="evenodd" fill="#A97C50" d="M36.412,225.608c-0.16-2.447,0.223-6.038,0.307-4.729
			C36.878,223.325,36.496,226.916,36.412,225.608z"/>
		<path fill-rule="evenodd" clip-rule="evenodd" fill="#A97C50" d="M41.639,225.608c0.163-7.282,0.32-0.301,0.309,4.735
			C41.784,237.634,41.625,230.644,41.639,225.608z"/>
		<path fill-rule="evenodd" clip-rule="evenodd" fill="#A97C50" d="M71.776,225.608c0.237-8.627,0.331,2.84,0.309,9.462
			c0,6.317,0,12.625,0,18.94c0,12.615,0,25.235,0,37.859c-0.477,14.46-0.272-20.528-0.309-28.393
			C71.776,250.855,71.776,238.228,71.776,225.608z"/>
		<path fill-rule="evenodd" clip-rule="evenodd" fill="#A97C50" d="M2.276,230.344c-0.16-2.447,0.223-6.045,0.308-4.735
			C2.743,228.063,2.362,231.651,2.276,230.344z"/>
		<path fill-rule="evenodd" clip-rule="evenodd" fill="#A97C50" d="M49.02,230.344c0.049-5.546,0.56-3.996,0.924-4.735
			c0,22.087,0,44.175,0,66.262c-0.477,14.46-0.271-20.528-0.308-28.393C49.157,247.879,49.358,239.828,49.02,230.344z"/>
		<path fill-rule="evenodd" clip-rule="evenodd" fill="#A97C50" d="M57.323,230.344c-0.16-2.447,0.224-6.045,0.309-4.735
			C57.79,228.063,57.408,231.651,57.323,230.344z"/>
		<path fill-rule="evenodd" clip-rule="evenodd" fill="#A97C50" d="M54.248,230.344c0.998,13.394,0.389,27.386,0.306,42.597
			C53.857,267.903,54.438,243.187,54.248,230.344z"/>
		<path fill-rule="evenodd" clip-rule="evenodd" fill="#A97C50" d="M61.32,230.344c0.709,12.759,0.109,45.649,0.308,66.252
			c-1.295-1.626-0.43-41.756-0.308-52.05C61.32,239.808,61.32,235.07,61.32,230.344z"/>
		<path fill-rule="evenodd" clip-rule="evenodd" fill="#A97C50" d="M63.165,230.344c0.889,11.574,0.554,41.971,0.615,66.252
			c-0.409,0-0.819,0-1.229,0c0.048-5.545,0.561-3.984,0.92-4.726C63.029,276.609,63.183,252.173,63.165,230.344z"/>
		<path fill-rule="evenodd" clip-rule="evenodd" fill="#A97C50" d="M70.854,235.07c0.26-15.026,0.405,8.406,0.308,14.204
			c0,9.466,0,18.93,0,28.393c-0.259,15.031-0.405-8.396-0.308-14.189C70.854,254.011,70.854,244.546,70.854,235.07z"/>
		<path fill-rule="evenodd" clip-rule="evenodd" fill="#A97C50" d="M3.198,239.808c0.163-7.29,0.321-0.297,0.309,4.738
			c0,4.729,0,9.465,0,14.194c0,11.043,0,22.087,0,33.13c-0.355,15.308-0.348-12.71-0.309-18.93
			C3.198,261.897,3.198,250.855,3.198,239.808z"/>
		<path fill-rule="evenodd" clip-rule="evenodd" fill="#A97C50" d="M4.121,239.808c-0.159-2.446,0.223-6.045,0.308-4.737
			C4.588,237.527,4.207,241.118,4.121,239.808z"/>
		<path fill-rule="evenodd" clip-rule="evenodd" fill="#A97C50" d="M17.959,239.808c-0.159-2.446,0.223-6.045,0.309-4.737
			C18.426,237.527,18.044,241.118,17.959,239.808z"/>
		<path fill-rule="evenodd" clip-rule="evenodd" fill="#A97C50" d="M55.785,239.808c0.161-7.29,0.32-0.297,0.308,4.738
			C55.931,251.825,55.771,244.846,55.785,239.808z"/>
		<path fill-rule="evenodd" clip-rule="evenodd" fill="#A97C50" d="M7.812,244.546c0.163-7.289,0.321-0.308,0.308,4.729
			C7.957,256.564,7.799,249.574,7.812,244.546z"/>
		<path fill-rule="evenodd" clip-rule="evenodd" fill="#A97C50" d="M13.039,244.546c-0.158-2.455,0.222-6.046,0.308-4.738
			C13.506,242.255,13.125,245.855,13.039,244.546z"/>
		<path fill-rule="evenodd" clip-rule="evenodd" fill="#A97C50" d="M22.573,239.808c0.734,8.571,0.173,37.062,0,47.324
			c0.193,17.245,1.554-12.766,1.23,9.464c-0.82,0-1.641,0-2.46,0c0.048-5.545,0.56-3.984,0.921-4.726
			C22.234,272.468,22.205,253.077,22.573,239.808z"/>
		<path fill-rule="evenodd" clip-rule="evenodd" fill="#A97C50" d="M32.105,244.546c0.425-15.068,0.305,16.717,0.309,23.658
			C31.99,283.271,32.109,251.48,32.105,244.546z"/>
		<path fill-rule="evenodd" clip-rule="evenodd" fill="#A97C50" d="M33.643,244.546c0.058-5.373,0.309-2.628,0.308,0
			C33.893,249.911,33.642,247.165,33.643,244.546z"/>
		<path fill-rule="evenodd" clip-rule="evenodd" fill="#A97C50" d="M57.323,244.546c0.059-5.373,0.309-2.628,0.309,0
			C57.572,249.911,57.322,247.165,57.323,244.546z"/>
		<path fill-rule="evenodd" clip-rule="evenodd" fill="#A97C50" d="M4.429,249.274c0.239-8.638,0.331,2.84,0.308,9.466
			C4.498,267.375,4.406,255.908,4.429,249.274z"/>
		<path fill-rule="evenodd" clip-rule="evenodd" fill="#A97C50" d="M17.652,249.274c0.164-7.29,0.32-0.298,0.307,4.736
			C17.797,261.29,17.639,254.31,17.652,249.274z"/>
		<path fill-rule="evenodd" clip-rule="evenodd" fill="#A97C50" d="M24.11,249.274c0.238-8.638,0.331,2.84,0.308,9.466
			c0,6.305,0,12.621,0,18.927c-0.24,8.635-0.331-2.831-0.308-9.463C24.11,261.897,24.11,255.582,24.11,249.274z"/>
		<path fill-rule="evenodd" clip-rule="evenodd" fill="#A97C50" d="M42.869,244.546c0.909,13.771-0.255,41.057,0.307,52.05
			c-0.922,0-1.844,0-2.767,0c0.423-6.093,0.304-20.556,0.308-33.118c0.644,4.273,0.108,26.706,0.922,28.393
			C43.227,294.227,42.196,256.294,42.869,244.546z"/>
		<path fill-rule="evenodd" clip-rule="evenodd" fill="#A97C50" d="M68.084,249.274c-0.155-2.445,0.226-6.039,0.31-4.729
			C68.552,246.99,68.172,250.584,68.084,249.274z"/>
		<path fill-rule="evenodd" clip-rule="evenodd" fill="#A97C50" d="M13.039,254.011c-0.158-2.455,0.222-6.046,0.308-4.736
			C13.506,251.72,13.125,255.32,13.039,254.011z"/>
		<path fill-rule="evenodd" clip-rule="evenodd" fill="#A97C50" d="M16.114,254.011c0.798-8.311-0.215,47.111,0.924,37.859
			c-0.097,6.42-0.771,3.919-1.231,4.726C15.596,277.571,16.101,269.582,16.114,254.011z"/>
		<path fill-rule="evenodd" clip-rule="evenodd" fill="#A97C50" d="M29.646,254.011c0.257-15.042,0.405,8.397,0.307,14.193
			c0,7.885,0,15.78,0,23.666c-0.257,15.028-0.405-8.406-0.307-14.203C29.646,269.783,29.646,261.897,29.646,254.011z"/>
		<path fill-rule="evenodd" clip-rule="evenodd" fill="#A97C50" d="M40.717,254.011c-0.16-2.455,0.223-6.046,0.31-4.736
			C41.183,251.72,40.802,255.32,40.717,254.011z"/>
		<path fill-rule="evenodd" clip-rule="evenodd" fill="#A97C50" d="M48.405,254.011c-0.158-2.455,0.225-6.046,0.309-4.736
			C48.871,251.72,48.49,255.32,48.405,254.011z"/>
		<path fill-rule="evenodd" clip-rule="evenodd" fill="#A97C50" d="M50.865,254.011c0.06-5.372,0.308-2.628,0.308,0
			C51.114,259.374,50.863,256.63,50.865,254.011z"/>
		<path fill-rule="evenodd" clip-rule="evenodd" fill="#A97C50" d="M64.396,254.011c-0.161-2.455,0.222-6.046,0.307-4.736
			C64.863,251.72,64.48,255.32,64.396,254.011z"/>
		<path fill-rule="evenodd" clip-rule="evenodd" fill="#A97C50" d="M9.964,258.74c-0.159-2.446,0.222-6.039,0.307-4.729
			C10.431,256.458,10.05,260.05,9.964,258.74z"/>
		<path fill-rule="evenodd" clip-rule="evenodd" fill="#A97C50" d="M23.188,258.74c-0.159-2.446,0.223-6.039,0.307-4.729
			C23.655,256.458,23.273,260.05,23.188,258.74z"/>
		<path fill-rule="evenodd" clip-rule="evenodd" fill="#A97C50" d="M41.639,258.74c-0.156-2.446,0.222-6.039,0.309-4.729
			C42.105,256.458,41.724,260.05,41.639,258.74z"/>
		<path fill-rule="evenodd" clip-rule="evenodd" fill="#A97C50" d="M7.812,263.478c0.059-5.373,0.309-2.631,0.308,0
			C8.061,268.849,7.811,266.104,7.812,263.478z"/>
		<path fill-rule="evenodd" clip-rule="evenodd" fill="#A97C50" d="M38.563,263.478c0.06-5.373,0.308-2.631,0.307,0
			C38.813,268.849,38.563,266.104,38.563,263.478z"/>
		<path fill-rule="evenodd" clip-rule="evenodd" fill="#A97C50" d="M44.406,258.74c0.426,2.31,0.746,42.662-0.306,37.855
			C43.882,279.044,44.623,276.291,44.406,258.74z"/>
		<path fill-rule="evenodd" clip-rule="evenodd" fill="#A97C50" d="M45.021,263.478c-0.159-2.457,0.223-6.047,0.307-4.737
			C45.489,261.185,45.106,264.784,45.021,263.478z"/>
		<path fill-rule="evenodd" clip-rule="evenodd" fill="#A97C50" d="M47.789,263.478c-0.158-2.457,0.223-6.047,0.309-4.737
			C48.257,261.185,47.875,264.784,47.789,263.478z"/>
		<path fill-rule="evenodd" clip-rule="evenodd" fill="#A97C50" d="M59.784,263.478c-0.161-2.457,0.221-6.047,0.306-4.737
			C60.25,261.185,59.868,264.784,59.784,263.478z"/>
		<path fill-rule="evenodd" clip-rule="evenodd" fill="#A97C50" d="M64.396,263.478c-0.161-2.457,0.222-6.047,0.307-4.737
			C64.863,261.185,64.48,264.784,64.396,263.478z"/>
		<path fill-rule="evenodd" clip-rule="evenodd" fill="#A97C50" d="M3.813,263.478c0.787,3.667,0.067,30.491,1.231,28.393
			C4.182,307.873,3.693,278.254,3.813,263.478z"/>
		<path fill-rule="evenodd" clip-rule="evenodd" fill="#A97C50" d="M17.652,268.204c-0.159-2.444,0.222-6.038,0.307-4.727
			C18.119,265.922,17.738,269.511,17.652,268.204z"/>
		<path fill-rule="evenodd" clip-rule="evenodd" fill="#A97C50" d="M23.495,263.478c0.921,3.109-0.293,10.106,0,18.928
			C22.73,281.692,23.405,266.374,23.495,263.478z"/>
		<path fill-rule="evenodd" clip-rule="evenodd" fill="#A97C50" d="M30.568,268.204c-0.159-2.444,0.223-6.038,0.307-4.727
			C31.035,265.922,30.653,269.511,30.568,268.204z"/>
		<path fill-rule="evenodd" clip-rule="evenodd" fill="#A97C50" d="M39.796,268.204c0.163-7.288,0.319-0.301,0.307,4.736
			C39.938,280.22,39.781,273.239,39.796,268.204z"/>
		<path fill-rule="evenodd" clip-rule="evenodd" fill="#A97C50" d="M9.964,272.94c0.059-5.373,0.308-2.627,0.307,0
			C10.213,278.313,9.963,275.569,9.964,272.94z"/>
		<path fill-rule="evenodd" clip-rule="evenodd" fill="#A97C50" d="M12.425,272.94c0.238-8.637,0.33,2.833,0.307,9.465
			C12.493,291.03,12.401,279.565,12.425,272.94z"/>
		<path fill-rule="evenodd" clip-rule="evenodd" fill="#A97C50" d="M33.336,272.94c0.33-15.952,0.866,37.617-0.616,23.655
			C33.068,290.899,33.599,288.019,33.336,272.94z"/>
		<path fill-rule="evenodd" clip-rule="evenodd" fill="#A97C50" d="M45.021,272.94c0.239-8.637,0.332,2.833,0.307,9.465
			C45.089,291.03,44.999,279.565,45.021,272.94z"/>
		<path fill-rule="evenodd" clip-rule="evenodd" fill="#A97C50" d="M49.02,272.94c0.162-7.29,0.321-0.308,0.307,4.727
			C49.164,284.956,49.006,277.966,49.02,272.94z"/>
		<path fill-rule="evenodd" clip-rule="evenodd" fill="#A97C50" d="M58.552,268.204c0.855-2.127-0.239,25.793,0.614,23.666
			c0.056,10.262-1.089,2.137-1.534,4.726C58.33,293.15,58.175,276.589,58.552,268.204z"/>
		<path fill-rule="evenodd" clip-rule="evenodd" fill="#A97C50" d="M2.583,272.94c0.668-0.801,0.14,16.78,0.308,23.655
			c-0.412,0-0.82,0-1.23,0c0.049-5.545,0.56-3.984,0.922-4.726C2.071,282.465,2.612,285.852,2.583,272.94z"/>
		<path fill-rule="evenodd" clip-rule="evenodd" fill="#A97C50" d="M38.87,272.94c0.25,0.896,0.307,4.746,0.616,4.727
			C39.321,288.819,38.03,280.557,38.87,272.94z"/>
		<path fill-rule="evenodd" clip-rule="evenodd" fill="#A97C50" d="M25.34,282.405c-0.16-2.455,0.222-6.048,0.308-4.738
			C25.807,280.111,25.426,283.713,25.34,282.405z"/>
		<path fill-rule="evenodd" clip-rule="evenodd" fill="#A97C50" d="M32.105,282.405c-0.158-2.455,0.224-6.048,0.309-4.738
			C32.573,280.111,32.191,283.713,32.105,282.405z"/>
		<path fill-rule="evenodd" clip-rule="evenodd" fill="#A97C50" d="M59.784,282.405c-0.161-2.455,0.221-6.048,0.306-4.738
			C60.25,280.111,59.868,283.713,59.784,282.405z"/>
		<path fill-rule="evenodd" clip-rule="evenodd" fill="#A97C50" d="M64.396,282.405c-0.161-2.455,0.222-6.048,0.307-4.738
			C64.863,280.111,64.48,283.713,64.396,282.405z"/>
		<path fill-rule="evenodd" clip-rule="evenodd" fill="#A97C50" d="M30.26,287.132c0.164-7.288,0.322-0.298,0.308,4.738
			C30.405,299.147,30.248,292.167,30.26,287.132z"/>
		<path fill-rule="evenodd" clip-rule="evenodd" fill="#A97C50" d="M50.865,287.132c0.163-7.288,0.32-0.298,0.308,4.738
			C51.009,299.147,50.853,292.167,50.865,287.132z"/>
		<path fill-rule="evenodd" clip-rule="evenodd" fill="#A97C50" d="M5.659,291.87c0.137-6.884,0.271,0.48,0.615,0
			C6.198,297.818,5.662,296.637,5.659,291.87z"/>
		<path fill-rule="evenodd" clip-rule="evenodd" fill="#A97C50" d="M27.8,291.87c0.136-6.884,0.271,0.48,0.616,0
			C28.34,297.818,27.804,296.637,27.8,291.87z"/>
		<path fill-rule="evenodd" clip-rule="evenodd" fill="#A97C50" d="M48.405,291.87C47.474,309.363,47.368,277.495,48.405,291.87
			L48.405,291.87z"/>
		<path fill-rule="evenodd" clip-rule="evenodd" fill="#A97C50" d="M52.402,291.87c0.057-5.373,0.31-2.629,0.309,0
			C52.653,297.242,52.401,294.497,52.402,291.87z"/>
		<path fill-rule="evenodd" clip-rule="evenodd" fill="#A97C50" d="M53.323,291.87c0.062-5.373,0.312-2.629,0.311,0
			C53.574,297.242,53.322,294.497,53.323,291.87z"/>
		<path fill-rule="evenodd" clip-rule="evenodd" fill="#A97C50" d="M54.248,291.87C55.279,280.433,53.504,307.746,54.248,291.87
			L54.248,291.87z"/>
		<path fill-rule="evenodd" clip-rule="evenodd" fill="#A97C50" d="M8.733,296.596c-0.159-2.443,0.224-6.036,0.308-4.726
			C9.201,294.315,8.819,297.905,8.733,296.596z"/>
		<path fill-rule="evenodd" clip-rule="evenodd" fill="#A97C50" d="M9.35,296.596c-0.16-2.443,0.221-6.036,0.307-4.726
			C9.815,294.315,9.436,297.905,9.35,296.596z"/>
		<path fill-rule="evenodd" clip-rule="evenodd" fill="#A97C50" d="M12.425,296.596c-0.159-2.443,0.222-6.036,0.307-4.726
			C12.89,294.315,12.509,297.905,12.425,296.596z"/>
		<path fill-rule="evenodd" clip-rule="evenodd" fill="#A97C50" d="M13.039,296.596c-0.158-2.443,0.222-6.036,0.308-4.726
			C13.506,294.315,13.125,297.905,13.039,296.596z"/>
		<path fill-rule="evenodd" clip-rule="evenodd" fill="#A97C50" d="M15.192,296.596c-0.158-2.443,0.223-6.036,0.307-4.726
			C15.659,294.315,15.276,297.905,15.192,296.596z"/>
		<path fill-rule="evenodd" clip-rule="evenodd" fill="#A97C50" d="M17.344,296.596c0.01-4.603,0.377-3.665,0.615-4.726
			C17.952,296.472,17.583,295.539,17.344,296.596z"/>
		<path fill-rule="evenodd" clip-rule="evenodd" fill="#A97C50" d="M20.42,296.596c0.008-4.603,0.376-3.665,0.615-4.726
			C21.026,296.472,20.659,295.539,20.42,296.596z"/>
		<path fill-rule="evenodd" clip-rule="evenodd" fill="#A97C50" d="M24.11,296.596c-0.16-2.443,0.221-6.036,0.308-4.726
			C24.577,294.315,24.194,297.905,24.11,296.596z"/>
		<path fill-rule="evenodd" clip-rule="evenodd" fill="#A97C50" d="M25.34,296.596c-0.16-2.443,0.222-6.036,0.308-4.726
			C25.807,294.315,25.426,297.905,25.34,296.596z"/>
		<path fill-rule="evenodd" clip-rule="evenodd" fill="#A97C50" d="M26.57,296.596c-0.159-2.443,0.223-6.036,0.308-4.726
			C27.038,294.315,26.656,297.905,26.57,296.596z"/>
		<path fill-rule="evenodd" clip-rule="evenodd" fill="#A97C50" d="M29.031,296.596c-0.159-2.443,0.223-6.036,0.307-4.726
			C29.498,294.315,29.116,297.905,29.031,296.596z"/>
		<path fill-rule="evenodd" clip-rule="evenodd" fill="#A97C50" d="M30.875,296.596c0.009-4.603,0.377-3.665,0.616-4.726
			C31.482,296.472,31.114,295.539,30.875,296.596z"/>
		<path fill-rule="evenodd" clip-rule="evenodd" fill="#A97C50" d="M31.799,296.596c0.008-4.603,0.376-3.665,0.615-4.726
			C32.405,296.472,32.038,295.539,31.799,296.596z"/>
		<path fill-rule="evenodd" clip-rule="evenodd" fill="#A97C50" d="M34.566,296.596c-0.159-2.443,0.222-6.036,0.307-4.726
			C35.033,294.315,34.651,297.905,34.566,296.596z"/>
		<path fill-rule="evenodd" clip-rule="evenodd" fill="#A97C50" d="M38.257,296.596c-0.157-2.443,0.22-6.036,0.307-4.726
			C38.724,294.315,38.343,297.905,38.257,296.596z"/>
		<path fill-rule="evenodd" clip-rule="evenodd" fill="#A97C50" d="M40.103,291.87C39.426,306.321,38.133,286.4,40.103,291.87
			L40.103,291.87z"/>
		<path fill-rule="evenodd" clip-rule="evenodd" fill="#A97C50" d="M45.021,296.596c-0.159-2.443,0.223-6.036,0.307-4.726
			C45.489,294.315,45.106,297.905,45.021,296.596z"/>
		<path fill-rule="evenodd" clip-rule="evenodd" fill="#A97C50" d="M46.56,296.596c-0.16-2.443,0.223-6.036,0.308-4.726
			C47.026,294.315,46.645,297.905,46.56,296.596z"/>
		<path fill-rule="evenodd" clip-rule="evenodd" fill="#A97C50" d="M49.02,296.596c-0.161-2.443,0.224-6.036,0.307-4.726
			C49.487,294.315,49.104,297.905,49.02,296.596z"/>
		<path fill-rule="evenodd" clip-rule="evenodd" fill="#A97C50" d="M50.249,296.596c-0.159-2.443,0.224-6.036,0.308-4.726
			C50.715,294.315,50.335,297.905,50.249,296.596z"/>
		<path fill-rule="evenodd" clip-rule="evenodd" fill="#A97C50" d="M64.396,296.596c0.008-4.603,0.375-3.665,0.614-4.726
			C65.004,296.472,64.636,295.539,64.396,296.596z"/>
		<path fill-rule="evenodd" clip-rule="evenodd" fill="#A97C50" d="M65.623,296.596c-0.156-2.443,0.224-6.036,0.31-4.726
			C66.092,294.315,65.708,297.905,65.623,296.596z"/>
		<path fill-rule="evenodd" clip-rule="evenodd" fill="#A97C50" d="M66.857,296.596c0.007-4.603,0.375-3.665,0.614-4.726
			C67.464,296.472,67.095,295.539,66.857,296.596z"/>
		<path fill-rule="evenodd" clip-rule="evenodd" fill="#A97C50" d="M71.162,296.596c-0.159-2.443,0.221-6.036,0.306-4.726
			C71.629,294.315,71.248,297.905,71.162,296.596z"/>
		<path fill-rule="evenodd" clip-rule="evenodd" fill="#A97C50" d="M3.198,31.579c-0.003-9.407-0.839-6.019-0.615-18.929
			C3.361,25.282,3.481,1.76,2.276,7.922c0.096-6.43,0.771-3.929,1.231-4.737c0,12.623,0,25.237,0,37.859
			c-0.262,0.876-0.291-1.848-0.309-4.728c-0.607-2.456-0.819,27.893-0.922,4.728C2.68,39.378,2.76,32.715,3.198,31.579z"/>
		<path fill-rule="evenodd" clip-rule="evenodd" fill="#A97C50" d="M4.121,7.922c0.095-6.43,0.77-3.929,1.23-4.737
			c-0.576,9.012-0.034,11.891,0,23.667C4.824,40.658,5.232,0.73,4.121,7.922z"/>
		<path fill-rule="evenodd" clip-rule="evenodd" fill="#A97C50" d="M12.117,31.579c0.507,0.665-0.322,19.737,0,33.13
			c-0.205,0-0.41,0-0.615,0c0,11.044,0,22.087,0,33.122c-1.164-9.695,0.34-32.717-0.616-47.323
			c-0.639,2.503-0.114,72.577-0.615,33.13c0-22.086,0-44.173,0-66.251c1.116,17.226-0.029-24.474,1.538-14.202
			c-0.521,4.593-0.791,13.075-0.615,28.394c0.417-1.463,0.256-11.853,0.308-18.929C12.192,9.01,11.51,49.458,12.117,31.579z
			 M10.886,36.316c0.002-2.628-0.248-5.372-0.306,0C10.579,38.944,10.829,41.689,10.886,36.316z"/>
		<path fill-rule="evenodd" clip-rule="evenodd" fill="#A97C50" d="M26.262,3.185c0.821,0,1.641,0,2.461,0
			c-0.344,1.608-1,25.13-0.923,4.737c-0.547,18.507-0.346,73.396-0.308,85.182c-0.97,11.525-0.52-39.139-0.615-56.788
			C26.911,21.623,25.911,22.807,26.262,3.185z M26.878,12.649c0.001-2.628-0.249-5.373-0.308,0
			C26.569,15.278,26.82,18.021,26.878,12.649z"/>
		<path fill-rule="evenodd" clip-rule="evenodd" fill="#A97C50" d="M29.953,31.579c0.39-14.424-1.051-24.09-0.307-28.394
			c1.266-2.233-0.297,12.738,0.921,14.202c-1.007,6.585,0.023,44.521-1.23,47.323c0.207-5.593,0.118-29.954,0-33.13
			C29.474,24.704,29.608,32.061,29.953,31.579z"/>
		<path fill-rule="evenodd" clip-rule="evenodd" fill="#A97C50" d="M37.026,55.246c-2.163,15.067,0.259-36.127-0.921-47.324
			c-0.052-10.263,1.09-2.148,1.536-4.737c-0.132,15.318,0.404,40.93-0.615,42.596c1.04,11.939,0.193,24.783,0.308,47.323
			c0.418-1.463,0.255-11.852,0.307-18.93c0.476-14.471,0.272,20.528,0.309,28.394c-0.555,21.452-0.219,56.586-0.309,85.182
			c-1.108-8.51,0.267-53.764-0.615-75.717c-0.004-9.407-0.839-6.018-0.614-18.929C37.864,117.529,35.337,64.267,37.026,55.246z
			 M37.026,7.922c0,6.308,0,12.613,0,18.93c0.049,5.564-0.053,13.431,0.308,14.191C37.151,31.242,37.712,9.954,37.026,7.922z"/>
		<path fill-rule="evenodd" clip-rule="evenodd" fill="#A97C50" d="M42.254,7.922c-1.53-0.347-0.2,13.913-0.922,23.657
			c0.245,16.176-0.458,27.017-0.306,4.737c0-11.044,0-22.086,0-33.131c0.512,0,1.022,0,1.535,0
			c0.074,25.67,0.493,46.052,0.308,75.718c-0.639,4.236-0.083-32.227-0.615-14.193c-0.319,2.215-0.064-25.688,0.308-28.393
			C41.916,24.751,42.121,26.225,42.254,7.922z"/>
		<path fill-rule="evenodd" clip-rule="evenodd" fill="#A97C50" d="M45.638,3.185c-0.312,28.394-0.302,44.455-0.616,70.989
			c-0.393-1.068-0.403-14.124,0-14.202c-0.258-5.487-0.406-12.689-0.308-23.655C45.228,28.412,44.52,1.76,45.638,3.185z"/>
		<path fill-rule="evenodd" clip-rule="evenodd" fill="#A97C50" d="M64.703,7.922c-0.56-3.678,0.186-5.093,0.616-4.737
			c0.549,49.653,0.376,83.382-0.309,118.313c-0.221-7.395,0.125-76.728,0-104.111C64.984,11.956,65.558,7.364,64.703,7.922z"/>
		<path fill-rule="evenodd" clip-rule="evenodd" fill="#A97C50" d="M63.472,36.316c0.97,6.49,0.421,19.487,0.309,28.393
			C63.004,55.754,64.063,48.12,63.472,36.316z"/>
		<path fill-rule="evenodd" clip-rule="evenodd" fill="#A97C50" d="M41.026,59.971c-0.089,7.646,0.288,8.146,0.306,14.202
			c0.24,21.135-0.473,32.111-0.306,4.729c0.037-8.483-0.378-9.977-0.31-18.931C41.07,54.292,41.497,58.133,41.026,59.971z"/>
		<path fill-rule="evenodd" clip-rule="evenodd" fill="#A97C50" d="M30.875,74.173c-0.298,0.125-0.237,5.787-0.307,9.464
			c-0.666,0.8-0.139-16.792-0.308-23.667c0.359,7.097,0.889,11.573,0.923,23.667C30.945,92.275,30.853,80.799,30.875,74.173z"/>
		<path fill-rule="evenodd" clip-rule="evenodd" fill="#A97C50" d="M3.198,88.367c-0.639,2.532-0.651-18.439-0.307-4.729
			C3.361,66.028,3.766,72.229,3.198,88.367z"/>
		<path fill-rule="evenodd" clip-rule="evenodd" fill="#A97C50" d="M41.947,74.173c-0.234-7.202,0.192-3.534,0.307,0
			c0.205,6.355-0.205,10.592-0.307,4.729C41.924,77.592,41.986,75.377,41.947,74.173z"/>
		<path fill-rule="evenodd" clip-rule="evenodd" fill="#A97C50" d="M47.789,244.546c0.519-28.363,0.323-92.747,0.309-113.583
			c0.525-5.672,0.253-104.247,0.616-33.132c0,9.463,0,18.928,0,28.404c-0.387,14.817-0.251,48.169-0.309,75.714
			C48.374,216.807,48.891,243.351,47.789,244.546z"/>
		<path fill-rule="evenodd" clip-rule="evenodd" fill="#A97C50" d="M40.103,258.74c-0.863-11.48-0.004-22.033-0.924-28.396
			c0.213-17.368,0.53-35.982,0-52.06c0.405,5.682,0.484,1.851,0.924,0c0.037-13.633-0.169-30.974,0.307-37.858
			c-0.465-4.111,0.084-7.086-0.307-18.929c0.297-0.135,0.237-5.796,0.307-9.465c0.167-6.875-0.358-24.455,0.308-23.666
			c0,7.894,0,15.78,0,23.666c0,15.772,0,31.552,0,47.325C39.829,181.973,40.146,223.133,40.103,258.74z"/>
		<path fill-rule="evenodd" clip-rule="evenodd" fill="#A97C50" d="M64.703,206.679c0.68-0.588,0.13-20.075,0.308-28.395
			c0.26-15.03,0.407,8.405,0.309,14.203c0,9.462,0,18.927,0,28.393c-0.086,24.908,0.323,28.058,0,47.324
			c-0.059,4.025,0.119,4.468,0.304,4.736c-0.771,17.611-0.646-17.985-0.612-28.395c0.089-7.645-0.289-8.155-0.308-14.202
			c-0.086-7.644,0.292-8.146,0.308-14.202c-0.724-7.825-0.668-27.602-0.614-47.319c-0.06-5.374-0.308-2.629-0.308,0
			c-0.496-20.791-0.423-50.282-0.617-75.719c1.328,3.235,0.284,42.971,0.617,61.525c0.857,2.128-0.24-25.794,0.614-23.667
			c0.755-14.598-0.554,10.262,0.308,9.464c-0.214,14.567-0.214,9.098,0,23.667C64.752,175.888,64.608,189.445,64.703,206.679z"/>
		<path fill-rule="evenodd" clip-rule="evenodd" fill="#A97C50" d="M43.176,112.032c1.222,19.613,0.054,59.321,0.616,80.455
			C42.649,180.076,43.386,138.799,43.176,112.032z"/>
		<path fill-rule="evenodd" clip-rule="evenodd" fill="#A97C50" d="M53.634,135.698c0.313-20.132,0.301,24.863,0.614,4.728
			c0.55-1.406,0.021,18.363-0.614,14.203C54.145,145.221,53.604,148.61,53.634,135.698z"/>
		<path fill-rule="evenodd" clip-rule="evenodd" fill="#A97C50" d="M11.501,296.596c-1.205,4.363-0.223-24.955-0.922-28.392
			c0.125-20.171-0.298-48.749,0.306-61.525c0.043-7.866-0.051-25.842,0-42.586c0.038-11.948-0.007-39.746,0.308-18.929
			c0,9.465,0,18.929,0,28.395c-0.253,13.372,0.434,12.255,0.308,23.656c-0.528,13.961-0.651,34.14-0.616,56.796
			c0.24,4.208,0.332,10.689,0.308,18.93C12.159,247.33,11.427,294.555,11.501,296.596z"/>
		<path fill-rule="evenodd" clip-rule="evenodd" fill="#A97C50" d="M51.788,135.698c-0.058,4.025,0.12,4.458,0.306,4.728
			c0,12.623,0,25.247,0,37.858c-0.688-2.029-0.123-23.318-0.306-33.121C51.599,140.946,51.416,136.691,51.788,135.698z"/>
		<path fill-rule="evenodd" clip-rule="evenodd" fill="#A97C50" d="M27.493,201.949c0.299,0.128,0.24,5.789,0.308,9.465
			c0,3.16,0,6.309,0,9.466c0,7.884,0,15.77,0,23.666c-0.038,8.483,0.377,9.976,0.307,18.932c-0.135,40.467-0.233-5.221-0.615-14.203
			C27.493,233.501,27.493,217.723,27.493,201.949z"/>
		<path fill-rule="evenodd" clip-rule="evenodd" fill="#A97C50" d="M44.714,187.749c-1.351,21.02,0.361-17.695,0-37.86
			c0.425-15.057,0.303,16.727,0.308,23.669c0,11.043,0,22.077,0,33.12c-0.651,15.74,0.118,48.979-0.921,47.332
			C44.461,234.321,44.482,209.442,44.714,187.749z"/>
		<path fill-rule="evenodd" clip-rule="evenodd" fill="#A97C50" d="M36.104,149.889c0.835,18.518,0.587,42.272,0,66.252
			c0,9.467,0,18.929,0,28.404c0.151,12.247,1.202,61.131-0.923,52.05c0.05-5.545,0.561-3.984,0.923-4.726
			C35.444,248.205,35.945,182.242,36.104,149.889z M36.412,164.093c0.084-1.307-0.147-7.184-0.307-4.735
			C36.019,160.666,36.251,166.539,36.412,164.093z"/>
		<path fill-rule="evenodd" clip-rule="evenodd" fill="#A97C50" d="M52.711,154.629C51.871,140.225,53.645,167.54,52.711,154.629
			L52.711,154.629z"/>
		<path fill-rule="evenodd" clip-rule="evenodd" fill="#A97C50" d="M45.328,254.011c-0.321-18.921,0.58-45.608,0-66.262
			c-0.086-7.644,0.292-8.146,0.31-14.19c0.025-7.503-0.147-18.054,0.308-18.93c0,6.307,0,12.613,0,18.93c0,12.611,0,25.234,0,37.855
			c0.313,19.43,0.139,18.949,0.307,42.597C45.248,253.232,46.232,229.035,45.328,254.011z"/>
		<path fill-rule="evenodd" clip-rule="evenodd" fill="#A97C50" d="M21.958,183.022c0.258-15.03,0.405,8.396,0.307,14.192
			c0,7.893,0,15.776,0,23.665c-0.681,16.193-0.921,37.312-0.614,56.787C20.331,253.443,22.267,220.552,21.958,183.022z"/>
		<path fill-rule="evenodd" clip-rule="evenodd" fill="#A97C50" d="M34.874,230.344c-0.417,1.465-0.254,11.854-0.307,18.931
			c-0.71-14.319-0.109-48.815-0.308-70.99c1.462,3.419,0.509,19.383,0.615,37.857c0.369,28.097,0.868,38.168,0.308,66.264
			c-0.559,1.298-0.241-41.73-0.615-14.201C33.736,259.652,35.464,250.845,34.874,230.344z"/>
		<path fill-rule="evenodd" clip-rule="evenodd" fill="#A97C50" d="M7.196,263.478c-0.667-0.799-0.138,16.78-0.308,23.654
			c-0.656-2.955-0.287-29.127,0-33.121c0-18.94,0-37.869,0-56.796c-0.086-8.454,0.292-9.705,0.308-4.728
			c-0.063,46.955,0.203,59.761,0.307,104.108C6.816,294.564,7.378,273.278,7.196,263.478z"/>
		<path fill-rule="evenodd" clip-rule="evenodd" fill="#A97C50" d="M6.274,197.215c0.686-18.227-0.137,12.756-0.308,9.464
			C5.712,201.777,6.239,198.148,6.274,197.215z"/>
		<path fill-rule="evenodd" clip-rule="evenodd" fill="#A97C50" d="M18.882,272.94c0.09-17.62,0.765,13.922,0,9.465
			c0.135,5.815,0.395,9.715,0.923,9.465c0.052,10.262-1.092,2.137-1.537,4.726C18.399,287.585,18.93,284.706,18.882,272.94z"/>
		<path fill-rule="evenodd" clip-rule="evenodd" fill="#A97C50" d="M10.271,287.132c-0.001,0.271-0.293-0.298-0.307,0
			c0.929-20.036,0.497,21,0,9.464C9.93,295.806,10.263,289.367,10.271,287.132z"/>
		<path fill-rule="evenodd" clip-rule="evenodd" fill="#A97C50" d="M55.171,287.132c0.639-2.521,0.649,18.447,0.306,4.738
			C54.839,297.164,54.826,296.971,55.171,287.132z"/>
		<path fill-rule="evenodd" clip-rule="evenodd" fill="#A97C50" d="M57.016,291.87C56.175,277.475,57.951,304.782,57.016,291.87
			L57.016,291.87z"/>
	</g>
</g>
<rect x="68.667" y="3.94" fill="#4E2914" stroke="#4F2811" stroke-width="0.25" width="2" height="293.477"/>
<rect x="6" y="293.839" fill="#4E2914" stroke="#4F2811" stroke-width="0.25" width="62.667" height="3.578"/>
</svg>
